<svg width="48" height="48" viewBox="0 0 48 48" fill="none" xmlns="http://www.w3.org/2000/svg">
<g clip-path="url(#clip0_1252_13508)">
<path d="M24 48C37.2548 48 48 37.2548 48 24C48 10.7452 37.2548 0 24 0C10.7452 0 0 10.7452 0 24C0 37.2548 10.7452 48 24 48Z" fill="#353535"/>
<path d="M17.4768 14C18.435 14 19.3096 14.0847 20.1007 14.2525C20.8918 14.4202 21.5673 14.6956 22.1308 15.0786C22.6944 15.4617 23.1317 15.9702 23.4428 16.6057C23.7539 17.2412 23.9085 18.0251 23.9085 18.959C23.9085 19.967 23.6774 20.8073 23.217 21.4799C22.7566 22.1525 22.0739 22.7033 21.1727 23.1323C22.4135 23.4871 23.3397 24.1086 23.9512 24.9948C24.5627 25.881 24.8685 26.9508 24.8685 28.2025C24.8685 29.2105 24.6711 30.0844 24.2765 30.8223C23.8818 31.5602 23.3503 32.1622 22.6819 32.6283C22.0135 33.0961 21.2527 33.4404 20.3976 33.6646C19.5372 33.8888 18.6501 34.0017 17.7613 34H8V14H17.4768ZM16.9133 22.0943C17.7026 22.0943 18.3515 21.9071 18.8599 21.5346C19.3683 21.1604 19.6225 20.5549 19.6207 19.7145C19.6207 19.2485 19.5354 18.8654 19.3665 18.567C19.1976 18.2687 18.9719 18.0339 18.6892 17.8662C18.4066 17.6985 18.083 17.582 17.7168 17.5166C17.34 17.4513 16.9578 17.4178 16.5738 17.4195H12.43V22.0978L16.9133 22.0943ZM17.1675 30.5804C17.5853 30.5822 18.0013 30.5398 18.4084 30.4551C18.803 30.3704 19.1514 30.2309 19.4519 30.0349C19.7523 29.839 19.9923 29.5724 20.1718 29.237C20.3496 28.9016 20.4403 28.4708 20.4403 27.9483C20.4403 26.9226 20.1487 26.1882 19.5656 25.7504C18.9825 25.3108 18.211 25.0919 17.2529 25.0919H12.43V30.5822L17.1675 30.5804ZM30.4397 30.1603C31.0406 30.7393 31.9063 31.0288 33.0352 31.0288C33.844 31.0288 34.5391 30.8276 35.1222 30.4269C35.7052 30.0261 36.0626 29.6007 36.1941 29.1523H39.7193C39.1557 30.8894 38.29 32.1304 37.1238 32.8772C35.9577 33.624 34.548 33.9982 32.8929 33.9982C31.7463 33.9982 30.7117 33.8164 29.7909 33.4527C28.87 33.089 28.0896 32.57 27.4497 31.8974C26.8097 31.2248 26.3155 30.4233 25.9689 29.4894C25.6222 28.5556 25.448 27.5281 25.448 26.4089C25.448 25.3267 25.6258 24.3186 25.9831 23.3848C26.3404 22.4509 26.8488 21.6441 27.5066 20.9627C28.1643 20.2812 28.95 19.7445 29.862 19.3526C30.7739 18.9607 31.7854 18.7648 32.8947 18.7648C34.1355 18.7648 35.2164 19.0031 36.139 19.4797C37.0598 19.9564 37.8171 20.5955 38.4091 21.3987C39.0011 22.202 39.4295 23.1164 39.6926 24.1439C39.9557 25.1713 40.0499 26.2447 39.9752 27.3657H29.4549C29.51 28.6491 29.8389 29.583 30.4397 30.1603ZM34.9675 22.5427C34.4875 22.0201 33.7587 21.7588 32.7809 21.7588C32.141 21.7588 31.6095 21.8665 31.1881 22.0801C30.7651 22.2955 30.4273 22.5603 30.1731 22.8781C29.9189 23.1959 29.7411 23.5313 29.638 23.8861C29.5349 24.241 29.4727 24.5587 29.4549 24.8377H35.9701C35.7799 23.8314 35.4457 23.0652 34.9675 22.5427ZM28.7687 15.0151H36.9087V17.2571H28.7687V15.0151Z" fill="white"/>
</g>
<defs>
<clipPath id="clip0_1252_13508">
<rect width="48" height="48" fill="white"/>
</clipPath>
</defs>
</svg>
