<svg width="34" height="34" viewBox="0 0 34 34" fill="none" xmlns="http://www.w3.org/2000/svg">
<g clip-path="url(#clip0_1400_17264)">
<g clip-path="url(#clip1_1400_17264)">
<path fill-rule="evenodd" clip-rule="evenodd" d="M24.0782 2.93222L31.0686 9.92177C34.9777 13.8309 34.9777 20.1685 31.0686 24.0777L24.0782 31.0681C20.169 34.9772 13.8314 34.9772 9.92226 31.0681L2.93186 24.0777C-0.977287 20.1685 -0.977287 13.8309 2.93186 9.92177L9.92226 2.93137C13.8314 -0.977776 20.169 -0.977776 24.0782 2.93137V2.93222ZM4.67521 21.0729V12.9248C4.67521 8.36882 8.36931 4.67472 12.9262 4.67472H21.0743C25.6311 4.67472 29.3252 8.36882 29.3252 12.9257V21.0738C29.3252 25.6306 25.6311 29.3247 21.0743 29.3247H12.9262C8.36931 29.3247 4.67521 25.6298 4.67521 21.0729Z" fill="#353535"/>
<path d="M31.0141 0.850213C31.383 0.851063 31.746 0.945413 32.0681 1.12391C32.4056 1.30241 32.6835 1.57526 32.8671 1.90846C33.052 2.23206 33.1492 2.59829 33.1492 2.97096C33.1492 3.34364 33.052 3.70987 32.8671 4.03346C32.6827 4.36496 32.4081 4.63866 32.0732 4.82226C31.7482 5.00469 31.3817 5.10041 31.009 5.10021C30.6455 5.09311 30.2895 4.99585 29.9729 4.81716C29.6408 4.63391 29.3673 4.36045 29.1841 4.02836C28.997 3.70552 28.8984 3.339 28.8984 2.96586C28.8984 2.59273 28.997 2.22621 29.1841 1.90336C29.3651 1.56846 29.6388 1.29136 29.9729 1.10521C30.293 0.934162 30.6511 0.846468 31.0141 0.850213ZM31.0141 1.19871C30.7067 1.20116 30.4048 1.28065 30.1361 1.42991C29.8556 1.58036 29.6244 1.80731 29.4688 2.08441C29.3142 2.35416 29.2329 2.65965 29.2329 2.97054C29.2329 3.28143 29.3142 3.58691 29.4688 3.85666C29.6218 4.13291 29.8522 4.35986 30.1318 4.51116C30.4016 4.66644 30.7075 4.74817 31.0188 4.74817C31.3301 4.74817 31.6359 4.66644 31.9058 4.51116C32.1846 4.35986 32.4149 4.13291 32.5688 3.85666C32.7233 3.58691 32.8046 3.28143 32.8046 2.97054C32.8046 2.65965 32.7233 2.35416 32.5688 2.08441C32.4142 1.80613 32.1821 1.57875 31.9007 1.42991C31.6294 1.27927 31.3244 1.19973 31.0141 1.19871ZM30.1641 4.06576V1.77841H30.9529C31.151 1.76906 31.3499 1.78946 31.5411 1.83791C31.6601 1.87786 31.7621 1.95691 31.8301 2.06146C31.8868 2.14401 31.9221 2.2393 31.9329 2.33883C31.9437 2.43836 31.9297 2.53902 31.8922 2.63181C31.8609 2.70695 31.8146 2.77492 31.7562 2.83156C31.6329 2.95847 31.4655 3.03304 31.2887 3.03981C31.3608 3.06793 31.4273 3.10882 31.485 3.16051C31.6151 3.30331 31.7298 3.45801 31.8259 3.62461L32.1064 4.08871H31.6389L31.4349 3.72661C31.3382 3.52721 31.2066 3.34672 31.0464 3.19366C30.9579 3.13633 30.8534 3.10865 30.7481 3.11461H30.5288V4.08871L30.1641 4.06576ZM30.533 2.77546H31.0005C31.1531 2.79143 31.3067 2.75743 31.4383 2.67856C31.4771 2.64957 31.5085 2.61165 31.5296 2.56801C31.5508 2.52437 31.5611 2.47629 31.5598 2.42781C31.5622 2.36215 31.5408 2.29784 31.4995 2.24676C31.4615 2.19197 31.4079 2.14991 31.3456 2.12606C31.2242 2.0913 31.0977 2.07722 30.9716 2.08441H30.5466L30.533 2.77546Z" fill="#353535"/>
</g>
</g>
<defs>
<clipPath id="clip0_1400_17264">
<rect width="34" height="34" fill="white"/>
</clipPath>
<clipPath id="clip1_1400_17264">
<rect width="34" height="34" fill="white"/>
</clipPath>
</defs>
</svg>
