<svg width="570" height="192" viewBox="0 0 570 192" fill="none" xmlns="http://www.w3.org/2000/svg">
<g filter="url(#filter0_d_990_39024)">
<path fill-rule="evenodd" clip-rule="evenodd" d="M550 36C550 27.1634 542.837 20 534 20H36C27.1634 20 20 27.1634 20 36V92C20 100.837 27.1634 108 36 108H116C124.837 108 132 115.163 132 124V156C132 164.837 139.163 172 148 172H422C430.837 172 438 164.837 438 156V124C438 115.163 445.163 108 454 108H534C542.837 108 550 100.837 550 92V36Z" fill="white"/>
</g>
<defs>
<filter id="filter0_d_990_39024" x="0" y="0" width="570" height="192" filterUnits="userSpaceOnUse" color-interpolation-filters="sRGB">
<feFlood flood-opacity="0" result="BackgroundImageFix"/>
<feColorMatrix in="SourceAlpha" type="matrix" values="0 0 0 0 0 0 0 0 0 0 0 0 0 0 0 0 0 0 127 0" result="hardAlpha"/>
<feOffset/>
<feGaussianBlur stdDeviation="10"/>
<feComposite in2="hardAlpha" operator="out"/>
<feColorMatrix type="matrix" values="0 0 0 0 0.0745098 0 0 0 0 0.0705882 0 0 0 0 0.301961 0 0 0 0.25 0"/>
<feBlend mode="normal" in2="BackgroundImageFix" result="effect1_dropShadow_990_39024"/>
<feBlend mode="normal" in="SourceGraphic" in2="effect1_dropShadow_990_39024" result="shape"/>
</filter>
</defs>
</svg>
