<svg width="771" height="220" viewBox="0 0 771 220" fill="none" xmlns="http://www.w3.org/2000/svg">
<path fill-rule="evenodd" clip-rule="evenodd" d="M771 23.1579C771 10.3681 760.632 0 747.842 0H23.1579C10.3681 0 0 10.3681 0 23.1579V104.842C0 117.632 10.3681 128 23.1579 128H56.8421C69.6319 128 80 138.368 80 151.158V196.842C80 209.632 90.3681 220 103.158 220H667.842C680.632 220 691 209.632 691 196.842V151.158C691 138.368 701.368 128 714.158 128H747.842C760.632 128 771 117.632 771 104.842V23.1579Z" fill="white"/>
</svg>
