<svg width="34" height="34" viewBox="0 0 34 34" fill="none" xmlns="http://www.w3.org/2000/svg">
<path d="M19.9545 15.1825C21.5597 14.5109 22.5398 13.4599 23.179 12.6715C24.4006 11.2263 24.8977 9.45985 24.8977 7.78102C24.8977 6.42336 24.5284 3.72263 22.2273 1.86861C20.6364 0.613138 19.2301 0 15.8778 0H14.1733C14.1165 0 14.0739 0 14.0028 0H7V34H27V27.4745C27 21.2263 25.0398 17.0219 19.9545 15.1825ZM22.4688 32.1168H18.8608V20.7737H14.6989V32.1314H11.517V1.69343H14.7983C16.0199 1.69343 17.8807 1.9708 19.2017 3.64964C19.8835 4.49635 20.3097 5.63504 20.4517 6.75913H14.7131V8.43796H20.5085C20.4659 9.51825 20.2528 10.7299 19.2159 12.0146C18.3068 13.1825 16.8153 14.2628 14.7131 14.2628C14.6989 14.2628 14.6847 14.2628 14.6705 14.2628V15.9562C20.2955 15.9562 22.483 19.7956 22.483 26.8321L22.4688 32.1168Z" fill="#353535"/>
</svg>
