<svg width="138" height="40" viewBox="0 0 138 40" fill="none" xmlns="http://www.w3.org/2000/svg">
<path d="M137.091 18.8383L137.084 18.8222C136.948 18.5251 136.917 18.1915 136.99 17.8739C137.293 16.5494 137.356 15.3039 137.356 14.4961C137.356 9.71913 135.064 5.60078 130.9 2.89912C127.102 0.437482 123.43 0.128679 119.689 0.011597C115.376 -0.123047 112.669 0.94386 111.237 1.7005C110.836 1.91271 110.359 1.92881 109.95 1.73416C109.556 1.54683 109.152 1.37413 108.738 1.219C106.89 0.526756 104.874 0.174048 102.747 0.174048C101.949 0.174048 101.161 0.228198 100.407 0.336499C99.9478 0.402357 99.4602 0.479924 98.9522 0.570662C98.7135 0.613104 98.4324 0.652619 98.1162 0.687744C98.0313 0.696525 97.7824 0.719941 97.311 0.719941H97.3022C96.9318 0.687744 96.5716 0.683353 95.4311 0.665791C95.1075 0.6614 94.6405 0.654083 94.4223 0.649692C93.7708 0.608714 93.1237 0.63652 92.4912 0.728722C92.2702 0.76092 92.0432 0.74043 91.8309 0.665791C91.1765 0.437482 90.4884 0.26625 89.7725 0.159413C88.2103 -0.0718236 86.4973 0.00281594 84.9454 0.37016C83.7654 0.649692 82.7566 1.0507 81.8943 1.51902C81.4521 1.75904 80.9178 1.74148 80.4844 1.48683C78.8505 0.526756 76.9238 0.00720649 74.877 0.00720649C72.5843 0.00720649 70.7351 0.422846 69.1349 1.32291C68.7645 1.53073 68.318 1.55415 67.9212 1.40048C67.3648 1.1868 66.7865 0.992156 66.1863 0.820924C64.302 0.280885 62.2011 0.00720649 59.9405 0.00720649C57.2393 0.00720649 54.686 0.507731 52.3523 1.49414C51.3391 1.92296 50.3787 2.43226 49.4754 3.02206C48.9937 3.33525 48.3729 3.32794 47.8942 3.01035C46.7024 2.22005 45.3921 1.56878 43.9807 1.06387C42.0145 0.362842 39.912 0.00720649 37.732 0.00720649C35.0382 0.00720649 32.5097 0.539928 30.2199 1.59074C29.5581 1.89368 28.9227 2.23615 28.3137 2.61666C27.8481 2.90644 27.2566 2.9079 26.7925 2.61666C25.9141 2.06345 24.9727 1.59513 23.9698 1.219C22.1221 0.526756 20.1061 0.174048 17.9788 0.174048C17.1809 0.174048 16.3932 0.228198 15.6392 0.336499C15.181 0.402357 14.692 0.479924 14.1839 0.570662C13.9453 0.613104 13.6642 0.652619 13.3479 0.687744C13.263 0.696525 13.0141 0.719941 12.5427 0.719941H12.5339C12.1635 0.687744 11.8033 0.683353 10.6628 0.665791C10.3393 0.6614 9.87223 0.654083 9.65409 0.649692C7.10953 0.487241 4.63671 1.37121 2.81248 3.10694C0.925293 4.90561 -0.081988 7.4375 0.0380659 10.0704C0.0585628 10.6163 0.0849161 11.1548 0.11859 11.6715L0.203506 13.0384C0.228395 13.4292 0.248892 13.8506 0.264997 14.2824C0.279638 14.6731 0.286958 15.1093 0.286958 15.5805C0.286958 16.1718 0.273781 16.9211 0.247428 17.8095C0.221075 18.7256 0.187401 19.7091 0.149335 20.7263C0.12591 21.3512 0.109805 22.7664 0.0849161 25.0232C0.0717395 26.232 0.0570988 27.6004 0.0468503 27.9619C0.0161048 29.0259 0 29.9099 0 30.665C0 33.1179 1.06292 35.4698 2.92375 37.1221C3.83001 37.9256 4.87682 38.5461 6.04515 38.9705C6.73619 39.2208 7.46823 39.4052 8.23247 39.5223C8.23979 39.5223 8.29836 39.5325 8.36717 39.5413C10.7082 39.8677 12.8736 39.834 12.8736 39.834C14.6144 39.8077 16.2087 39.7828 17.9978 39.2486C21.2686 38.271 22.576 36.3684 24.7326 36.3215C26.3533 36.2864 27.7866 37.7016 30.296 38.9559C32.3457 39.9803 34.7732 40.0506 37.1772 39.9803C40.2429 39.8911 41.9178 39.8413 43.824 38.7934C45.8386 37.6856 46.313 36.4679 48.0113 36.3215C49.5164 36.1928 50.001 37.1177 52.3523 38.1802C55.4722 39.5896 58.3301 39.6672 59.9405 39.6672C62.2011 39.6672 64.302 39.3935 66.1892 38.852C67.4556 38.4876 68.6283 38.0309 69.6986 37.488C70.1114 37.2787 70.6034 37.2845 71.0118 37.5026C72.0543 38.0617 73.1992 38.5329 74.4319 38.9061C76.1595 39.4301 78.0643 39.6657 80.5971 39.6657C80.6308 39.6657 80.6659 39.6657 80.7011 39.6657C82.9528 39.6598 84.4227 39.4388 86.5325 38.7876C87.0654 38.6222 87.5851 38.4363 88.0902 38.2285C88.4958 38.0617 88.957 38.0778 89.3391 38.2929C89.8061 38.5563 90.2981 38.7817 90.8134 38.9676C91.5045 39.2179 92.238 39.4037 93.0022 39.5208C93.2892 39.5647 93.9626 39.6672 96.8805 39.6672C97.4603 39.6672 98.0562 39.6203 98.7018 39.5223L98.7194 39.5193C99.4719 39.4037 100.203 39.2193 100.902 38.9661C102.062 38.5446 103.11 37.9241 104.021 37.1162C104.271 36.8938 104.507 36.6582 104.726 36.4108C105.252 35.821 106.166 35.7478 106.77 36.2572C108.475 37.6929 110.473 38.6134 113.06 39.1549C114.691 39.4959 116.515 39.6686 118.484 39.6686C120.644 39.6686 122.755 39.4213 124.764 38.931C126.951 38.3968 128.945 37.586 130.695 36.5191C132.7 35.2942 134.359 33.7428 135.63 31.9017C137.17 29.6655 137.984 27.0399 137.984 24.3119C137.984 24.2255 137.995 24.088 137.998 23.927C138.022 22.7167 137.872 20.997 137.093 18.8383H137.091Z" fill="#353535"/>
<path d="M37.6844 8.22217C38.945 8.22217 40.1265 8.41828 41.226 8.8105C42.3255 9.20273 43.2845 9.73398 44.1 10.4028C44.9155 11.0716 45.5655 11.8722 46.0472 12.803C46.5289 13.7338 46.7704 14.7524 46.7704 15.8574C46.7704 17.2257 46.5289 18.3658 46.0472 19.282C45.5655 20.1982 44.9155 20.9402 44.1 21.508C43.2845 22.0759 42.3255 22.4754 41.226 22.7081C40.125 22.9408 38.945 23.0579 37.6844 23.0579C36.7694 23.0579 35.9348 22.9862 35.1809 22.8398C34.4269 22.6949 33.8266 22.55 33.3815 22.4037C33.1341 22.3451 32.9555 22.3817 32.8442 22.5134C32.7329 22.6452 32.7022 22.8266 32.752 23.0593C32.8266 23.4091 32.9613 23.7867 33.1604 24.1936C33.3581 24.6019 33.6421 24.9795 34.014 25.3278C34.3844 25.6776 34.8675 25.9674 35.4605 26.2001C36.0534 26.4328 36.7957 26.5484 37.6859 26.5484C38.3784 26.5484 38.9772 26.4825 39.4852 26.3523C39.9918 26.222 40.431 26.0537 40.8014 25.8503C41.1718 25.6468 41.4939 25.4141 41.7662 25.1522C42.0386 24.8902 42.286 24.6282 42.5085 24.3663C42.854 23.9594 43.2874 23.756 43.8072 23.756C44.1044 23.756 44.3943 23.8292 44.6783 23.974C44.9623 24.1204 45.2156 24.3165 45.4381 24.5624C45.6607 24.8097 45.8466 25.101 45.9945 25.4346C46.1424 25.7698 46.217 26.1401 46.217 26.5469C46.217 27.1001 46.0311 27.6811 45.6607 28.2929C45.2903 28.9032 44.7456 29.471 44.0282 29.995C43.3108 30.5189 42.4207 30.9477 41.3578 31.2814C40.2948 31.6151 39.0709 31.7834 37.6859 31.7834C36.1515 31.7834 34.768 31.4995 33.5308 30.9331C32.2937 30.3652 31.244 29.5588 30.3772 28.511C29.512 27.4645 28.8444 26.2205 28.3744 24.7804C27.9044 23.3403 27.6702 21.748 27.6702 20.002C27.6702 18.2561 27.9044 16.6638 28.3744 15.2237C28.8444 13.7835 29.512 12.5396 30.3772 11.4931C31.2425 10.4467 32.2937 9.63886 33.5308 9.07101C34.7665 8.50316 36.1515 8.2207 37.6859 8.2207L37.6844 8.22217ZM33.9686 17.2887C34.3683 17.3838 34.9056 17.498 35.5805 17.6282C36.254 17.7599 36.9392 17.8243 37.6346 17.8243C38.6668 17.8243 39.5306 17.6516 40.226 17.3062C40.9215 16.9609 41.2699 16.4779 41.2699 15.8588C41.2699 15.2398 40.9229 14.7568 40.226 14.4114C39.5306 14.066 38.6668 13.8933 37.6346 13.8933C36.9172 13.8933 36.3067 13.9767 35.8016 14.1436C35.2965 14.3104 34.8793 14.5197 34.5528 14.77C34.2263 15.0202 33.9788 15.288 33.8105 15.5749C33.6421 15.8603 33.5265 16.1354 33.4635 16.3974C33.421 16.5891 33.4474 16.7721 33.5426 16.9521C33.6377 17.1306 33.7797 17.2448 33.9686 17.2916V17.2887Z" fill="white"/>
<path d="M48.9182 20.002C48.9182 18.2561 49.1817 16.6638 49.7103 15.2237C50.2388 13.7835 50.9913 12.5396 51.9664 11.4931C52.9415 10.4467 54.101 9.63886 55.4421 9.07101C56.7832 8.50316 58.2678 8.2207 59.8929 8.2207C61.4097 8.2207 62.7522 8.38901 63.9176 8.72269C65.083 9.05784 66.0581 9.48665 66.8443 10.0091C67.6305 10.5331 68.2264 11.0994 68.6334 11.7112C69.0404 12.3215 69.2424 12.904 69.2424 13.4572C69.2424 13.8362 69.1605 14.1992 68.9979 14.5475C68.8354 14.8973 68.6319 15.1958 68.3889 15.4417C68.1444 15.6891 67.8662 15.8852 67.5558 16.0315C67.244 16.1779 66.9263 16.2496 66.5998 16.2496C66.0303 16.2496 65.5559 16.0462 65.1767 15.6393C64.9322 15.3773 64.6614 15.1154 64.3642 14.8534C64.0655 14.5914 63.7141 14.3587 63.3071 14.1553C62.6131 13.807 62.0158 13.6826 61.8635 13.6533C60.9895 13.4865 60.2926 13.5874 59.9837 13.6357C58.6806 13.8377 57.2005 14.5665 56.2181 15.831C55.0893 17.2828 55.1083 18.8078 55.12 19.7825C55.1303 20.624 55.303 23.4106 57.4742 25.1975C57.8637 25.5181 58.6338 26.1371 59.8285 26.3684C60.0188 26.405 60.8401 26.5528 61.865 26.3508C62.0729 26.3098 62.6468 26.1796 63.3086 25.8488C63.7156 25.6454 64.067 25.4127 64.3656 25.1507C64.6628 24.8887 64.9352 24.6268 65.1782 24.3648C65.5574 23.9579 66.0317 23.7545 66.6013 23.7545C66.9263 23.7545 67.244 23.8277 67.5573 23.9726C67.8691 24.1189 68.1473 24.315 68.3904 24.5609C68.6349 24.8083 68.8369 25.0995 68.9994 25.4332C69.1619 25.7683 69.2439 26.1386 69.2439 26.5454C69.2439 27.0987 69.0404 27.6797 68.6349 28.2914C68.2278 28.9017 67.632 29.4696 66.8458 29.9935C66.0596 30.5174 65.083 30.9463 63.9191 31.2799C62.7537 31.6136 61.4126 31.7819 59.8944 31.7819C58.2678 31.7819 56.7847 31.498 55.4436 30.9316C54.1025 30.3638 52.9429 29.5574 51.9679 28.5095C50.9928 27.4631 50.2403 26.2191 49.7117 24.779C49.1832 23.3389 48.9197 21.7466 48.9197 20.0006L48.9182 20.002Z" fill="white"/>
<path d="M72.637 8.80611C72.9503 8.51341 73.265 8.2207 74.8331 8.2207C76.0878 8.2207 76.7159 8.80611 76.9296 9.08564C77.2942 9.56129 77.4508 10.0223 77.5006 10.2696C78.0467 12.9757 76.9633 15.4739 77.972 17.0018C78.9852 18.5371 82.0729 19.0522 83.4638 18.0263C84.5369 17.2345 84.6014 15.5237 84.6467 14.347C84.6614 13.965 84.6467 12.8118 84.5999 11.4126C84.5677 10.4057 84.5164 10.0735 84.7478 9.64617C85.2455 8.72562 86.4168 8.44901 86.7594 8.36706C87.7886 8.12411 89.4181 8.16948 90.0287 9.04759C90.1648 9.24224 90.2249 9.39152 90.1868 10.8141C90.1634 11.6614 90.1531 12.6391 90.1575 13.7484C90.1634 15.9378 90.2014 16.6652 90.2717 18.8546C90.3405 21.0441 90.3625 19.7884 90.3683 21.9778C90.3727 23.6126 90.1238 25.2634 89.6055 26.4767C89.0858 27.6885 88.3625 28.691 87.4343 29.4827C86.5061 30.273 85.3993 30.8672 84.1123 31.2653C82.8254 31.6619 82.1695 31.7805 80.6396 31.7848C79.2121 31.7878 77.8271 31.7058 76.729 31.3721C75.6324 31.0385 74.713 30.6111 73.9722 30.0872C73.2314 29.5632 72.6692 28.9954 72.2856 28.3836C71.902 27.7719 71.7087 27.1879 71.7073 26.6333C71.7073 26.2527 71.7819 25.8883 71.9342 25.5385C72.0865 25.1873 72.2768 24.8873 72.5052 24.6399C72.7336 24.3911 72.9942 24.1936 73.287 24.0458C73.5798 23.8979 73.8785 23.8262 74.1845 23.8248C74.7203 23.8248 75.1654 24.0253 75.5241 24.435C75.754 24.697 76.0102 24.959 76.2913 25.221C76.5724 25.4829 76.9047 25.7156 77.2868 25.9191C77.6704 26.121 78.1228 26.2893 78.6455 26.4196C79.1682 26.5498 79.786 26.6142 80.5005 26.6113C81.0422 26.6113 81.3716 26.5791 81.6498 26.5176C81.761 26.4928 82.067 26.424 82.4726 26.2542C82.9938 26.0361 83.6321 25.7698 84.0919 25.199C84.3935 24.8229 84.8766 24.0282 84.6131 23.4428C84.3203 22.7915 82.5224 23.0037 80.2194 23.0037C78.6719 23.0037 78.0818 22.8486 77.5006 22.711C77.5006 22.711 76.2371 22.411 75.1464 21.8329C71.0382 19.6552 71.1948 9.74862 72.6355 8.80758L72.637 8.80611Z" fill="white"/>
<path d="M93.0538 15.7448C93.0538 15.1638 93.0436 14.6281 93.0245 14.1364C93.0055 13.6461 92.9821 13.169 92.9528 12.7065C92.9235 12.2426 92.8957 11.7845 92.8664 11.3308C92.8371 10.8771 92.8137 10.3956 92.7947 9.88634C92.7756 9.55998 92.8708 9.29654 93.0802 9.09604C93.2895 8.89554 93.5662 8.81504 93.9103 8.85017C94.1387 8.86919 96.3992 8.88676 96.5808 8.90432C96.7623 8.92188 96.9863 8.93212 97.2528 8.93212C97.9013 8.93212 98.4694 8.90432 98.9555 8.85017C99.4416 8.79602 99.8896 8.73162 100.301 8.65991C100.711 8.5882 101.106 8.5238 101.488 8.46965C101.87 8.4155 102.27 8.3877 102.69 8.3877C103.854 8.3877 104.908 8.56478 105.853 8.91895C106.797 9.27313 107.608 9.77365 108.285 10.4176C108.961 11.063 109.487 11.8343 109.858 12.7344C110.23 13.633 110.416 14.6369 110.416 15.7448C110.416 16.8527 110.23 17.8567 109.858 18.7553C109.487 19.6539 108.961 20.4266 108.285 21.072C107.608 21.7174 106.797 22.2165 105.853 22.5707C104.908 22.9248 103.854 23.1019 102.69 23.1019C102.462 23.1019 102.194 23.0829 101.889 23.0478C101.583 23.0112 101.275 22.9702 100.96 22.9248C100.645 22.8795 100.335 22.8341 100.03 22.7887C99.7241 22.7434 99.4679 22.7024 99.2571 22.6658C98.875 22.6117 98.7037 22.7565 98.7417 23.1019C98.7988 23.7371 98.8281 29.1024 98.8281 30.8293C98.8281 30.9932 98.7564 31.1381 98.6129 31.2655C98.4694 31.3928 98.2981 31.4923 98.0975 31.5655C97.8969 31.6372 97.6773 31.6928 97.4387 31.7294C97.2001 31.766 96.9951 31.7835 96.8238 31.7835C96.6525 31.7835 94.392 31.7645 94.1533 31.7294C93.9147 31.6928 93.6951 31.6386 93.4945 31.5655C93.2939 31.4923 93.1226 31.3928 92.9791 31.2655C92.8357 31.1381 92.7639 30.9932 92.7639 30.8293C92.7639 30.1576 92.7786 29.3351 92.8064 28.3633C92.8342 27.3915 92.8679 22.2121 92.9059 21.195C92.944 20.1778 92.9777 19.1826 93.0055 18.2108C93.0348 17.2391 93.0479 16.4166 93.0479 15.7448H93.0538ZM98.973 17.3737C99.3508 17.4688 99.8588 17.583 100.496 17.7133C101.133 17.845 101.778 17.9094 102.436 17.9094C103.411 17.9094 104.226 17.7367 104.882 17.3913C105.538 17.0459 105.867 16.5629 105.867 15.9439C105.867 15.3248 105.539 14.8418 104.882 14.4964C104.226 14.151 103.409 13.9783 102.436 13.9783C101.759 13.9783 101.182 14.0618 100.705 14.2286C100.228 14.3954 99.8339 14.6047 99.5265 14.855C99.2175 15.1053 98.9848 15.3731 98.8252 15.6599C98.6656 15.9453 98.5573 16.2205 98.4972 16.4824C98.4577 16.6741 98.4826 16.8571 98.5719 17.0371C98.6612 17.2157 98.7959 17.3298 98.9745 17.3766L98.973 17.3737Z" fill="white"/>
<path d="M111.071 27.6872C111.13 27.5145 111.407 26.7783 112.146 26.2968C114.5 24.766 117.673 27.2774 121.037 26.6627C124.239 26.0773 124.083 24.1747 123.302 23.0039C122.252 21.4292 117.444 21.6282 117.172 21.6267C117.147 21.6267 117.002 21.6297 116.834 21.5785C116.737 21.5492 116.647 21.5053 116.562 21.4482C116.383 21.3297 116.244 21.1804 116.141 21.0004C116.039 20.8218 115.963 20.6272 115.913 20.4193C115.862 20.2101 115.837 20.0169 115.837 19.8383C115.837 19.6598 115.862 19.4651 115.913 19.2573C115.964 19.048 116.04 18.8548 116.141 18.6763C116.242 18.4977 116.383 18.3485 116.562 18.2285C116.647 18.1714 116.737 18.1275 116.834 18.0982C116.975 18.0558 117.098 18.0499 117.149 18.0499C117.16 18.0499 117.169 18.0499 117.171 18.0499C120.802 18.088 121.872 17.7367 121.872 17.7367C123.266 17.444 123.963 16.1268 123.788 15.3951C123.769 15.316 123.734 14.7848 123.44 14.3706C122.176 12.5924 118.999 12.0656 117.481 13.4925C116.676 14.2491 117.083 14.8931 116.087 15.3951C115.216 15.8341 113.822 15.6878 113.125 15.2487C111.764 14.3165 112.196 12.0012 112.951 10.8582C113.663 9.78247 113.847 9.65954 114.509 9.24829C114.98 8.95558 116.24 8.12577 119.393 8.22382C122.397 8.31749 124.46 8.51506 126.47 9.81906C128.11 10.883 129.258 12.4168 129.258 14.6633C129.258 15.2209 129.137 16.4005 128.921 16.7883C128.705 17.1762 128.463 17.5099 128.197 17.7879C127.93 18.066 127.687 18.3104 127.472 18.5182C127.255 18.7275 127.147 18.9207 127.147 19.0992C127.147 19.2778 127.305 19.4827 127.624 19.711C127.942 19.9393 128.292 20.2627 128.674 20.6798C129.056 21.097 129.404 21.6546 129.724 22.3497C130.041 23.0464 129.888 23.3654 129.888 24.4792C129.888 25.5929 129.576 26.6013 128.952 27.5072C128.328 28.4116 127.495 29.1814 126.453 29.8181C125.409 30.4547 124.195 30.9406 122.809 31.2801C121.422 31.6182 119.967 31.7865 118.44 31.7865C117.016 31.7865 115.756 31.6724 114.663 31.444C113.221 31.1426 112.474 30.7416 111.916 30.2718C111.063 29.5517 110.729 28.6809 111.07 27.6901L111.071 27.6872Z" fill="white"/>
<path d="M8.29013 15.7448C8.29013 15.1638 8.27988 14.6281 8.26085 14.1364C8.24182 13.6461 8.21839 13.169 8.18911 12.7065C8.15983 12.2426 8.13201 11.7845 8.10273 11.3308C8.07345 10.8771 8.05002 10.3956 8.03099 9.88634C8.01196 9.55998 8.10712 9.29654 8.31648 9.09604C8.52585 8.89554 8.80256 8.81504 9.14661 8.85017C9.37501 8.86919 11.6355 8.88676 11.8171 8.90432C11.9986 8.92188 12.2226 8.93212 12.4891 8.93212C13.1377 8.93212 13.7057 8.90432 14.1918 8.85017C14.6779 8.79602 15.1259 8.73162 15.5373 8.65991C15.9472 8.5882 16.3425 8.5238 16.7246 8.46965C17.1068 8.4155 17.5065 8.3877 17.9266 8.3877C19.0906 8.3877 20.1447 8.56478 21.089 8.91895C22.0334 9.27313 22.8445 9.77365 23.5209 10.4176C24.1973 11.063 24.7229 11.8343 25.0947 12.7344C25.4666 13.633 25.6526 14.6369 25.6526 15.7448C25.6526 16.8527 25.4666 17.8567 25.0947 18.7553C24.7229 19.6539 24.1973 20.4266 23.5209 21.072C22.8445 21.7174 22.0334 22.2165 21.089 22.5707C20.1447 22.9248 19.0906 23.1019 17.9266 23.1019C17.6983 23.1019 17.4303 23.0829 17.1258 23.0478C16.8198 23.0112 16.5109 22.9702 16.1961 22.9248C15.8813 22.8795 15.571 22.8341 15.2664 22.7887C14.9604 22.7434 14.7042 22.7024 14.4934 22.6658C14.1113 22.6117 13.94 22.7565 13.978 23.1019C14.0351 23.7371 14.0644 29.1024 14.0644 30.8293C14.0644 30.9932 13.9927 31.1381 13.8492 31.2655C13.7057 31.3928 13.5344 31.4923 13.3339 31.5655C13.1333 31.6372 12.9137 31.6928 12.675 31.7294C12.4364 31.766 12.2314 31.7835 12.0601 31.7835C11.8888 31.7835 9.62829 31.7645 9.38965 31.7294C9.151 31.6928 8.93139 31.6386 8.73082 31.5655C8.53024 31.4923 8.35894 31.3928 8.21546 31.2655C8.07198 31.1381 8.00024 30.9932 8.00024 30.8293C8.00024 30.1576 8.01488 29.3351 8.0427 28.3633C8.07052 27.3915 8.10419 22.2121 8.14226 21.195C8.18033 20.1778 8.214 19.1826 8.24182 18.2108C8.2711 17.2391 8.28427 16.4166 8.28427 15.7448H8.29013ZM14.2094 17.3737C14.5871 17.4688 15.0951 17.583 15.732 17.7133C16.3689 17.845 17.0145 17.9094 17.6719 17.9094C18.647 17.9094 19.4625 17.7367 20.1184 17.3913C20.7743 17.0459 21.1037 16.5629 21.1037 15.9439C21.1037 15.3248 20.7757 14.8418 20.1184 14.4964C19.4625 14.151 18.6455 13.9783 17.6719 13.9783C16.9955 13.9783 16.4187 14.0618 15.9414 14.2286C15.4641 14.3954 15.0702 14.6047 14.7628 14.855C14.4539 15.1053 14.2211 15.3731 14.0615 15.6599C13.9019 15.9453 13.7936 16.2205 13.7335 16.4824C13.694 16.6741 13.7189 16.8571 13.8082 17.0371C13.8975 17.2157 14.0322 17.3298 14.2108 17.3766L14.2094 17.3737Z" fill="white"/>
</svg>
