<svg width="138" height="41" viewBox="0 0 138 41" fill="none" xmlns="http://www.w3.org/2000/svg">
<path d="M137.091 19.3383L137.084 19.3222C136.948 19.0251 136.917 18.6915 136.99 18.3739C137.293 17.0494 137.356 15.8039 137.356 14.9961C137.356 10.2191 135.064 6.10078 130.9 3.39912C127.102 0.937482 123.43 0.628679 119.689 0.511597C115.376 0.376953 112.669 1.44386 111.237 2.2005C110.836 2.41271 110.359 2.42881 109.95 2.23416C109.556 2.04683 109.152 1.87413 108.738 1.719C106.89 1.02676 104.874 0.674048 102.747 0.674048C101.949 0.674048 101.161 0.728198 100.407 0.836499C99.9478 0.902357 99.4602 0.979924 98.9522 1.07066C98.7135 1.1131 98.4324 1.15262 98.1162 1.18774C98.0313 1.19652 97.7824 1.21994 97.311 1.21994H97.3022C96.9318 1.18774 96.5716 1.18335 95.4311 1.16579C95.1075 1.1614 94.6405 1.15408 94.4223 1.14969C93.7708 1.10871 93.1237 1.13652 92.4912 1.22872C92.2702 1.26092 92.0432 1.24043 91.8309 1.16579C91.1765 0.937482 90.4884 0.76625 89.7725 0.659413C88.2103 0.428176 86.4973 0.502816 84.9454 0.87016C83.7654 1.14969 82.7566 1.5507 81.8943 2.01902C81.4521 2.25904 80.9178 2.24148 80.4844 1.98683C78.8505 1.02676 76.9238 0.507206 74.877 0.507206C72.5843 0.507206 70.7351 0.922846 69.1349 1.82291C68.7645 2.03073 68.318 2.05415 67.9212 1.90048C67.3649 1.6868 66.7865 1.49216 66.1863 1.32092C64.302 0.780885 62.2011 0.507206 59.9405 0.507206C57.2393 0.507206 54.686 1.00773 52.3523 1.99414C51.3391 2.42296 50.3787 2.93226 49.4754 3.52206C48.9937 3.83525 48.3729 3.82794 47.8942 3.51035C46.7024 2.72005 45.3921 2.06878 43.9807 1.56387C42.0145 0.862842 39.912 0.507206 37.732 0.507206C35.0382 0.507206 32.5097 1.03993 30.2199 2.09074C29.5581 2.39368 28.9227 2.73615 28.3137 3.11666C27.8481 3.40644 27.2566 3.4079 26.7925 3.11666C25.9141 2.56345 24.9727 2.09513 23.9698 1.719C22.1221 1.02676 20.1061 0.674048 17.9788 0.674048C17.1809 0.674048 16.3932 0.728198 15.6392 0.836499C15.181 0.902357 14.692 0.979924 14.1839 1.07066C13.9453 1.1131 13.6642 1.15262 13.3479 1.18774C13.263 1.19652 13.0141 1.21994 12.5427 1.21994H12.5339C12.1635 1.18774 11.8033 1.18335 10.6628 1.16579C10.3393 1.1614 9.87223 1.15408 9.65409 1.14969C7.10953 0.987241 4.63671 1.87121 2.81248 3.60694C0.925293 5.40561 -0.081988 7.9375 0.0380659 10.5704C0.0585628 11.1163 0.0849161 11.6548 0.11859 12.1715L0.203506 13.5384C0.228395 13.9292 0.248892 14.3506 0.264997 14.7824C0.279638 15.1731 0.286958 15.6093 0.286958 16.0805C0.286958 16.6718 0.273781 17.4211 0.247428 18.3095C0.221075 19.2256 0.187401 20.2091 0.149335 21.2263C0.12591 21.8512 0.109805 23.2664 0.0849161 25.5232C0.0717395 26.732 0.0570988 28.1004 0.0468503 28.4619C0.0161048 29.5259 0 30.4099 0 31.165C0 33.6179 1.06292 35.9698 2.92375 37.6221C3.83001 38.4256 4.87682 39.0461 6.04515 39.4705C6.73619 39.7208 7.46823 39.9052 8.23247 40.0223C8.23979 40.0223 8.29836 40.0325 8.36717 40.0413C10.7082 40.3677 12.8736 40.334 12.8736 40.334C14.6144 40.3077 16.2087 40.2828 17.9978 39.7486C21.2686 38.771 22.576 36.8684 24.7326 36.8215C26.3533 36.7864 27.7866 38.2016 30.296 39.4559C32.3457 40.4804 34.7732 40.5506 37.1772 40.4804C40.2429 40.3911 41.9178 40.3413 43.824 39.2934C45.8386 38.1856 46.313 36.9679 48.0113 36.8215C49.5164 36.6928 50.001 37.6177 52.3523 38.6802C55.4722 40.0896 58.3301 40.1672 59.9405 40.1672C62.2011 40.1672 64.302 39.8935 66.1892 39.352C67.4556 38.9876 68.6283 38.5309 69.6986 37.988C70.1114 37.7787 70.6034 37.7845 71.0118 38.0026C72.0543 38.5617 73.1992 39.0329 74.4319 39.4061C76.1595 39.9301 78.0643 40.1657 80.5971 40.1657C80.6308 40.1657 80.6659 40.1657 80.7011 40.1657C82.9528 40.1598 84.4227 39.9388 86.5325 39.2876C87.0654 39.1222 87.5851 38.9363 88.0902 38.7285C88.4958 38.5617 88.957 38.5778 89.3391 38.7929C89.8061 39.0563 90.2981 39.2817 90.8134 39.4676C91.5045 39.7179 92.238 39.9037 93.0022 40.0208C93.2892 40.0647 93.9626 40.1672 96.8805 40.1672C97.4603 40.1672 98.0562 40.1203 98.7018 40.0223L98.7194 40.0193C99.4719 39.9037 100.202 39.7193 100.902 39.4661C102.062 39.0446 103.11 38.4241 104.021 37.6162C104.271 37.3938 104.507 37.1582 104.726 36.9108C105.252 36.321 106.166 36.2478 106.77 36.7572C108.475 38.1929 110.473 39.1134 113.06 39.6549C114.691 39.9959 116.515 40.1686 118.484 40.1686C120.644 40.1686 122.755 39.9213 124.764 39.431C126.951 38.8968 128.945 38.086 130.695 37.0191C132.7 35.7942 134.359 34.2428 135.63 32.4017C137.17 30.1655 137.984 27.5399 137.984 24.8119C137.984 24.7255 137.995 24.588 137.997 24.427C138.022 23.2167 137.872 21.497 137.093 19.3383H137.091Z" fill="white"/>
<path d="M37.6844 8.72217C38.945 8.72217 40.1265 8.91828 41.226 9.3105C42.3255 9.70273 43.2845 10.234 44.1 10.9028C44.9155 11.5716 45.5655 12.3722 46.0472 13.303C46.5289 14.2338 46.7704 15.2524 46.7704 16.3574C46.7704 17.7257 46.5289 18.8658 46.0472 19.782C45.5655 20.6982 44.9155 21.4402 44.1 22.008C43.2845 22.5759 42.3255 22.9754 41.226 23.2081C40.125 23.4408 38.945 23.5579 37.6844 23.5579C36.7694 23.5579 35.9348 23.4862 35.1809 23.3398C34.4269 23.1949 33.8266 23.05 33.3815 22.9037C33.1341 22.8451 32.9555 22.8817 32.8442 23.0134C32.7329 23.1452 32.7022 23.3266 32.752 23.5593C32.8266 23.9091 32.9613 24.2867 33.1604 24.6936C33.3581 25.1019 33.6421 25.4795 34.014 25.8278C34.3844 26.1776 34.8675 26.4674 35.4605 26.7001C36.0534 26.9328 36.7957 27.0484 37.6859 27.0484C38.3784 27.0484 38.9772 26.9825 39.4852 26.8523C39.9918 26.722 40.431 26.5537 40.8014 26.3503C41.1718 26.1468 41.4939 25.9141 41.7662 25.6522C42.0386 25.3902 42.286 25.1282 42.5085 24.8663C42.854 24.4594 43.2874 24.256 43.8072 24.256C44.1044 24.256 44.3943 24.3292 44.6783 24.474C44.9623 24.6204 45.2156 24.8165 45.4381 25.0624C45.6607 25.3097 45.8466 25.601 45.9945 25.9346C46.1424 26.2698 46.217 26.6401 46.217 27.0469C46.217 27.6001 46.0311 28.1811 45.6607 28.7929C45.2903 29.4032 44.7456 29.971 44.0282 30.495C43.3108 31.0189 42.4207 31.4477 41.3578 31.7814C40.2948 32.1151 39.0709 32.2834 37.6859 32.2834C36.1515 32.2834 34.768 31.9995 33.5308 31.4331C32.2937 30.8652 31.244 30.0588 30.3772 29.011C29.512 27.9645 28.8444 26.7205 28.3744 25.2804C27.9044 23.8403 27.6702 22.248 27.6702 20.502C27.6702 18.7561 27.9044 17.1638 28.3744 15.7237C28.8444 14.2835 29.512 13.0396 30.3772 11.9931C31.2425 10.9467 32.2937 10.1389 33.5308 9.57101C34.7665 9.00316 36.1515 8.7207 37.6859 8.7207L37.6844 8.72217ZM33.9686 17.7887C34.3683 17.8838 34.9056 17.998 35.5805 18.1282C36.254 18.2599 36.9392 18.3243 37.6346 18.3243C38.6668 18.3243 39.5306 18.1516 40.226 17.8062C40.9215 17.4609 41.2699 16.9779 41.2699 16.3588C41.2699 15.7397 40.9229 15.2568 40.226 14.9114C39.5306 14.566 38.6668 14.3933 37.6346 14.3933C36.9172 14.3933 36.3067 14.4767 35.8016 14.6436C35.2965 14.8104 34.8793 15.0197 34.5528 15.27C34.2263 15.5202 33.9788 15.788 33.8105 16.0749C33.6421 16.3603 33.5265 16.6354 33.4635 16.8974C33.421 17.0891 33.4474 17.2721 33.5426 17.4521C33.6377 17.6306 33.7797 17.7448 33.9686 17.7916V17.7887Z" fill="#353535"/>
<path d="M48.9182 20.502C48.9182 18.7561 49.1817 17.1638 49.7103 15.7237C50.2388 14.2835 50.9913 13.0396 51.9664 11.9931C52.9415 10.9467 54.101 10.1389 55.4421 9.57101C56.7832 9.00316 58.2678 8.7207 59.8929 8.7207C61.4097 8.7207 62.7522 8.88901 63.9176 9.22269C65.083 9.55784 66.0581 9.98665 66.8443 10.5091C67.6305 11.0331 68.2264 11.5994 68.6334 12.2112C69.0404 12.8215 69.2424 13.404 69.2424 13.9572C69.2424 14.3362 69.1605 14.6992 68.9979 15.0475C68.8354 15.3973 68.6319 15.6958 68.3889 15.9417C68.1444 16.1891 67.8662 16.3852 67.5558 16.5315C67.244 16.6779 66.9263 16.7496 66.5998 16.7496C66.0303 16.7496 65.5559 16.5462 65.1767 16.1393C64.9322 15.8773 64.6614 15.6154 64.3642 15.3534C64.0655 15.0914 63.7141 14.8587 63.3071 14.6553C62.6131 14.307 62.0158 14.1826 61.8635 14.1533C60.9895 13.9865 60.2926 14.0874 59.9837 14.1357C58.6806 14.3377 57.2005 15.0665 56.2181 16.331C55.0893 17.7828 55.1083 19.3078 55.12 20.2825C55.1303 21.124 55.303 23.9106 57.4742 25.6975C57.8637 26.0181 58.6338 26.6371 59.8285 26.8684C60.0188 26.905 60.8401 27.0528 61.865 26.8508C62.0729 26.8098 62.6468 26.6796 63.3086 26.3488C63.7156 26.1454 64.067 25.9127 64.3656 25.6507C64.6628 25.3887 64.9352 25.1268 65.1782 24.8648C65.5574 24.4579 66.0317 24.2545 66.6013 24.2545C66.9263 24.2545 67.244 24.3277 67.5573 24.4726C67.8691 24.6189 68.1473 24.815 68.3904 25.0609C68.6349 25.3083 68.8369 25.5995 68.9994 25.9332C69.1619 26.2683 69.2439 26.6386 69.2439 27.0455C69.2439 27.5987 69.0404 28.1797 68.6349 28.7914C68.2278 29.4017 67.632 29.9696 66.8458 30.4935C66.0596 31.0174 65.083 31.4463 63.9191 31.7799C62.7537 32.1136 61.4126 32.2819 59.8944 32.2819C58.2678 32.2819 56.7847 31.998 55.4436 31.4316C54.1025 30.8638 52.9429 30.0574 51.9679 29.0095C50.9928 27.9631 50.2403 26.7191 49.7117 25.279C49.1832 23.8389 48.9197 22.2466 48.9197 20.5006L48.9182 20.502Z" fill="#353535"/>
<path d="M72.637 9.30611C72.9503 9.01341 73.265 8.7207 74.8331 8.7207C76.0878 8.7207 76.7159 9.30611 76.9296 9.58564C77.2942 10.0613 77.4508 10.5223 77.5006 10.7696C78.0467 13.4757 76.9633 15.9739 77.972 17.5018C78.9852 19.0371 82.0729 19.5522 83.4638 18.5263C84.5369 17.7345 84.6014 16.0237 84.6467 14.847C84.6614 14.465 84.6467 13.3118 84.5999 11.9126C84.5677 10.9057 84.5164 10.5735 84.7478 10.1462C85.2455 9.22562 86.4168 8.94901 86.7594 8.86706C87.7886 8.62411 89.4181 8.66948 90.0287 9.54759C90.1648 9.74224 90.2249 9.89152 90.1868 11.3141C90.1634 12.1614 90.1531 13.1391 90.1575 14.2484C90.1634 16.4378 90.2014 17.1652 90.2717 19.3546C90.3405 21.5441 90.3625 20.2884 90.3683 22.4778C90.3727 24.1125 90.1238 25.7634 89.6055 26.9767C89.0858 28.1885 88.3625 29.191 87.4343 29.9827C86.5061 30.773 85.3993 31.3672 84.1123 31.7653C82.8254 32.1619 82.1695 32.2805 80.6396 32.2848C79.2121 32.2878 77.8271 32.2058 76.729 31.8721C75.6324 31.5385 74.713 31.1111 73.9722 30.5872C73.2314 30.0632 72.6692 29.4954 72.2856 28.8836C71.902 28.2719 71.7087 27.6879 71.7073 27.1333C71.7073 26.7527 71.7819 26.3883 71.9342 26.0385C72.0865 25.6873 72.2768 25.3873 72.5052 25.1399C72.7336 24.8911 72.9942 24.6936 73.287 24.5458C73.5798 24.3979 73.8785 24.3262 74.1845 24.3248C74.7203 24.3248 75.1654 24.5253 75.5241 24.935C75.754 25.197 76.0102 25.459 76.2913 25.721C76.5724 25.9829 76.9047 26.2156 77.2868 26.4191C77.6704 26.621 78.1228 26.7893 78.6455 26.9196C79.1682 27.0498 79.786 27.1142 80.5005 27.1113C81.0422 27.1113 81.3716 27.0791 81.6498 27.0176C81.761 26.9928 82.067 26.924 82.4726 26.7542C82.9938 26.5361 83.6321 26.2698 84.0919 25.699C84.3935 25.3229 84.8766 24.5282 84.6131 23.9428C84.3203 23.2915 82.5224 23.5037 80.2194 23.5037C78.6719 23.5037 78.0818 23.3486 77.5006 23.211C77.5006 23.211 76.2371 22.911 75.1464 22.3329C71.0382 20.1552 71.1948 10.2486 72.6355 9.30758L72.637 9.30611Z" fill="#353535"/>
<path d="M93.0538 16.2451C93.0538 15.664 93.0436 15.1284 93.0245 14.6366C93.0055 14.1464 92.9821 13.6693 92.9528 13.2068C92.9235 12.7429 92.8957 12.2848 92.8664 11.8311C92.8371 11.3774 92.8137 10.8959 92.7947 10.3866C92.7756 10.0602 92.8708 9.79679 93.0802 9.59628C93.2895 9.39578 93.5662 9.31529 93.9103 9.35041C94.1387 9.36944 96.3992 9.387 96.5808 9.40456C96.7623 9.42212 96.9863 9.43237 97.2528 9.43237C97.9013 9.43237 98.4694 9.40456 98.9555 9.35041C99.4416 9.29626 99.8896 9.23187 100.301 9.16015C100.711 9.08844 101.106 9.02405 101.488 8.9699C101.87 8.91575 102.27 8.88794 102.69 8.88794C103.854 8.88794 104.908 9.06503 105.853 9.4192C106.797 9.77337 107.608 10.2739 108.285 10.9178C108.961 11.5633 109.487 12.3345 109.858 13.2346C110.23 14.1332 110.416 15.1372 110.416 16.2451C110.416 17.3529 110.23 18.3569 109.858 19.2555C109.487 20.1541 108.961 20.9269 108.285 21.5723C107.608 22.2177 106.797 22.7167 105.853 23.0709C104.908 23.4251 103.854 23.6022 102.69 23.6022C102.462 23.6022 102.194 23.5832 101.889 23.548C101.583 23.5114 101.275 23.4705 100.96 23.4251C100.645 23.3797 100.335 23.3344 100.03 23.289C99.7241 23.2436 99.4679 23.2026 99.2571 23.166C98.875 23.1119 98.7037 23.2568 98.7417 23.6022C98.7988 24.2373 98.8281 29.6026 98.8281 31.3296C98.8281 31.4935 98.7564 31.6384 98.6129 31.7657C98.4694 31.893 98.2981 31.9925 98.0975 32.0657C97.8969 32.1374 97.6773 32.193 97.4387 32.2296C97.2001 32.2662 96.9951 32.2838 96.8238 32.2838C96.6525 32.2838 94.392 32.2648 94.1533 32.2296C93.9147 32.193 93.6951 32.1389 93.4945 32.0657C93.2939 31.9925 93.1226 31.893 92.9791 31.7657C92.8357 31.6384 92.7639 31.4935 92.7639 31.3296C92.7639 30.6578 92.7786 29.8353 92.8064 28.8635C92.8342 27.8918 92.8679 22.7124 92.9059 21.6952C92.944 20.6781 92.9777 19.6829 93.0055 18.7111C93.0348 17.7393 93.0479 16.9168 93.0479 16.2451H93.0538ZM98.973 17.874C99.3508 17.9691 99.8588 18.0832 100.496 18.2135C101.133 18.3452 101.778 18.4096 102.436 18.4096C103.411 18.4096 104.226 18.2369 104.882 17.8915C105.538 17.5461 105.867 17.0632 105.867 16.4441C105.867 15.825 105.539 15.3421 104.882 14.9967C104.226 14.6513 103.409 14.4786 102.436 14.4786C101.759 14.4786 101.182 14.562 100.705 14.7289C100.228 14.8957 99.8339 15.105 99.5265 15.3552C99.2175 15.6055 98.9848 15.8733 98.8252 16.1602C98.6656 16.4456 98.5573 16.7207 98.4972 16.9827C98.4577 17.1744 98.4826 17.3573 98.5719 17.5373C98.6612 17.7159 98.7959 17.8301 98.9745 17.8769L98.973 17.874Z" fill="#353535"/>
<path d="M111.071 28.1872C111.13 28.0145 111.407 27.2783 112.146 26.7968C114.5 25.266 117.673 27.7774 121.037 27.1627C124.239 26.5773 124.083 24.6747 123.302 23.5039C122.252 21.9292 117.444 22.1282 117.172 22.1267C117.147 22.1267 117.002 22.1297 116.834 22.0785C116.737 22.0492 116.647 22.0053 116.562 21.9482C116.383 21.8297 116.244 21.6804 116.141 21.5004C116.039 21.3218 115.963 21.1272 115.913 20.9193C115.862 20.7101 115.837 20.5169 115.837 20.3383C115.837 20.1598 115.862 19.9651 115.913 19.7573C115.964 19.548 116.04 19.3548 116.141 19.1763C116.242 18.9977 116.383 18.8485 116.562 18.7285C116.647 18.6714 116.737 18.6275 116.834 18.5982C116.975 18.5558 117.098 18.5499 117.149 18.5499C117.16 18.5499 117.169 18.5499 117.171 18.5499C120.802 18.588 121.872 18.2367 121.872 18.2367C123.266 17.944 123.963 16.6268 123.788 15.8951C123.769 15.816 123.734 15.2848 123.44 14.8706C122.176 13.0924 118.999 12.5656 117.481 13.9925C116.676 14.7491 117.083 15.3931 116.087 15.8951C115.216 16.3341 113.822 16.1878 113.125 15.7487C111.764 14.8165 112.196 12.5012 112.951 11.3582C113.663 10.2825 113.847 10.1595 114.509 9.74829C114.98 9.45558 116.24 8.62577 119.393 8.72382C122.397 8.81749 124.46 9.01506 126.47 10.3191C128.11 11.383 129.258 12.9168 129.258 15.1633C129.258 15.7209 129.137 16.9005 128.921 17.2883C128.705 17.6762 128.463 18.0099 128.197 18.2879C127.93 18.566 127.687 18.8104 127.472 19.0182C127.255 19.2275 127.147 19.4207 127.147 19.5992C127.147 19.7778 127.305 19.9827 127.624 20.211C127.942 20.4393 128.292 20.7627 128.674 21.1798C129.056 21.597 129.404 22.1546 129.724 22.8497C130.041 23.5464 129.888 23.8654 129.888 24.9792C129.888 26.0929 129.576 27.1013 128.952 28.0072C128.328 28.9116 127.495 29.6814 126.453 30.3181C125.409 30.9547 124.195 31.4406 122.809 31.7801C121.422 32.1182 119.967 32.2865 118.44 32.2865C117.016 32.2865 115.756 32.1724 114.663 31.944C113.221 31.6426 112.474 31.2416 111.916 30.7718C111.063 30.0517 110.729 29.1809 111.07 28.1901L111.071 28.1872Z" fill="#353535"/>
<path d="M8.29013 16.2448C8.29013 15.6638 8.27988 15.1281 8.26085 14.6364C8.24182 14.1461 8.21839 13.669 8.18911 13.2065C8.15983 12.7426 8.13201 12.2845 8.10273 11.8308C8.07345 11.3771 8.05002 10.8956 8.03099 10.3863C8.01196 10.06 8.10712 9.79654 8.31648 9.59604C8.52585 9.39554 8.80256 9.31504 9.14661 9.35017C9.37501 9.36919 11.6355 9.38676 11.8171 9.40432C11.9986 9.42188 12.2226 9.43212 12.4891 9.43212C13.1377 9.43212 13.7057 9.40432 14.1918 9.35017C14.6779 9.29602 15.1259 9.23162 15.5373 9.15991C15.9472 9.0882 16.3425 9.0238 16.7246 8.96965C17.1068 8.9155 17.5065 8.8877 17.9266 8.8877C19.0906 8.8877 20.1447 9.06478 21.089 9.41895C22.0334 9.77312 22.8445 10.2736 23.5209 10.9176C24.1973 11.563 24.7229 12.3343 25.0947 13.2344C25.4666 14.133 25.6526 15.1369 25.6526 16.2448C25.6526 17.3527 25.4666 18.3567 25.0947 19.2553C24.7229 20.1539 24.1973 20.9266 23.5209 21.572C22.8445 22.2174 22.0334 22.7165 21.089 23.0707C20.1447 23.4248 19.0906 23.6019 17.9266 23.6019C17.6983 23.6019 17.4303 23.5829 17.1258 23.5478C16.8198 23.5112 16.5109 23.4702 16.1961 23.4248C15.8813 23.3795 15.571 23.3341 15.2664 23.2887C14.9604 23.2434 14.7042 23.2024 14.4934 23.1658C14.1113 23.1117 13.94 23.2565 13.978 23.6019C14.0351 24.2371 14.0644 29.6024 14.0644 31.3293C14.0644 31.4932 13.9927 31.6381 13.8492 31.7655C13.7057 31.8928 13.5344 31.9923 13.3339 32.0655C13.1333 32.1372 12.9137 32.1928 12.675 32.2294C12.4364 32.266 12.2314 32.2835 12.0601 32.2835C11.8888 32.2835 9.62829 32.2645 9.38965 32.2294C9.151 32.1928 8.93139 32.1387 8.73082 32.0655C8.53024 31.9923 8.35894 31.8928 8.21546 31.7655C8.07198 31.6381 8.00024 31.4932 8.00024 31.3293C8.00024 30.6576 8.01488 29.8351 8.0427 28.8633C8.07052 27.8915 8.10419 22.7121 8.14226 21.695C8.18033 20.6778 8.214 19.6826 8.24182 18.7108C8.2711 17.7391 8.28427 16.9166 8.28427 16.2448H8.29013ZM14.2094 17.8737C14.5871 17.9688 15.0951 18.083 15.732 18.2133C16.3689 18.345 17.0145 18.4094 17.6719 18.4094C18.647 18.4094 19.4625 18.2367 20.1184 17.8913C20.7743 17.5459 21.1037 17.0629 21.1037 16.4439C21.1037 15.8248 20.7757 15.3418 20.1184 14.9964C19.4625 14.651 18.6455 14.4783 17.6719 14.4783C16.9955 14.4783 16.4187 14.5618 15.9414 14.7286C15.4641 14.8954 15.0702 15.1047 14.7628 15.355C14.4539 15.6053 14.2211 15.8731 14.0615 16.1599C13.9019 16.4453 13.7936 16.7205 13.7335 16.9824C13.694 17.1741 13.7189 17.3571 13.8082 17.5371C13.8975 17.7157 14.0322 17.8298 14.2108 17.8766L14.2094 17.8737Z" fill="#353535"/>
</svg>
