<svg width="11" height="20" viewBox="0 0 11 20" fill="none" xmlns="http://www.w3.org/2000/svg">
<path d="M3.80398 13.8494V13.7386C3.81629 12.563 3.93939 11.6274 4.1733 10.9318C4.4072 10.2363 4.73958 9.67306 5.17045 9.24219C5.60133 8.81132 6.11837 8.4143 6.72159 8.05114C7.08475 7.82955 7.41098 7.56794 7.70028 7.26634C7.98958 6.95857 8.21733 6.60464 8.38352 6.20455C8.55587 5.80445 8.64205 5.36127 8.64205 4.875C8.64205 4.27178 8.50047 3.74858 8.21733 3.3054C7.93419 2.86222 7.55563 2.5206 7.08168 2.28054C6.60772 2.04048 6.08144 1.92045 5.50284 1.92045C4.99811 1.92045 4.51184 2.02509 4.04403 2.23438C3.57623 2.44366 3.18537 2.77296 2.87145 3.2223C2.55753 3.67164 2.37595 4.25947 2.3267 4.9858H0C0.0492424 3.93939 0.320076 3.0438 0.8125 2.29901C1.31108 1.55421 1.96662 0.984849 2.77912 0.590909C3.59777 0.19697 4.50568 0 5.50284 0C6.58617 0 7.52794 0.215436 8.32813 0.646307C9.13447 1.07718 9.75616 1.66809 10.1932 2.41903C10.6364 3.16998 10.858 4.02557 10.858 4.9858C10.858 5.66288 10.7533 6.27533 10.544 6.82315C10.3409 7.37098 10.0455 7.86032 9.65767 8.29119C9.27604 8.72206 8.81439 9.10369 8.27273 9.43608C7.73106 9.77462 7.29711 10.1316 6.97088 10.5071C6.64465 10.8764 6.40767 11.3165 6.25994 11.8274C6.11222 12.3383 6.0322 12.9754 6.01989 13.7386V13.8494H3.80398ZM4.9858 19.3153C4.5303 19.3153 4.13944 19.1522 3.81321 18.826C3.48698 18.4998 3.32386 18.1089 3.32386 17.6534C3.32386 17.1979 3.48698 16.8071 3.81321 16.4808C4.13944 16.1546 4.5303 15.9915 4.9858 15.9915C5.44129 15.9915 5.83215 16.1546 6.15838 16.4808C6.48461 16.8071 6.64773 17.1979 6.64773 17.6534C6.64773 17.955 6.57079 18.232 6.4169 18.4844C6.26918 18.7367 6.06913 18.9399 5.81676 19.0938C5.57055 19.2415 5.29356 19.3153 4.9858 19.3153Z" fill="white"/>
</svg>
