<svg width="48" height="48" viewBox="0 0 48 48" fill="none" xmlns="http://www.w3.org/2000/svg">
<rect width="48" height="48" rx="24" fill="#353535"/>
<path fill-rule="evenodd" clip-rule="evenodd" d="M10.8554 23.7507C17.8525 20.712 22.5105 18.6928 24.8496 17.7132C31.5068 14.9344 32.9062 14.4546 33.8058 14.4346C34.0057 14.4346 34.4456 14.4746 34.7454 14.7145C34.9853 14.9144 35.0453 15.1743 35.0853 15.3742C35.1253 15.5741 35.1653 15.9939 35.1253 16.3138C34.7654 20.1122 33.2061 29.3284 32.4064 33.5666C32.0666 35.3658 31.4068 35.9656 30.7671 36.0256C29.3677 36.1455 28.3081 35.106 26.9687 34.2263C24.8496 32.8469 23.6701 31.9873 21.6109 30.6278C19.2319 29.0685 20.7713 28.2088 22.1307 26.8094C22.4905 26.4496 28.628 20.8519 28.7479 20.3521C28.7679 20.2921 28.7679 20.0522 28.628 19.9323C28.488 19.8123 28.2881 19.8523 28.1282 19.8923C27.9083 19.9323 24.5497 22.1713 18.0124 26.5895C17.0528 27.2492 16.1932 27.5691 15.4135 27.5491C14.5539 27.5291 12.9145 27.0693 11.6751 26.6695C10.1757 26.1897 8.97618 25.9298 9.07614 25.0901C9.13611 24.6503 9.73586 24.2105 10.8554 23.7507Z" fill="white"/>
</svg>
