<svg width="48" height="49" viewBox="0 0 48 49" fill="none" xmlns="http://www.w3.org/2000/svg">
<g id="A_SocialButton">
<rect x="0.5" y="1" width="47" height="47" rx="23.5" fill="white"/>
<rect x="0.5" y="1" width="47" height="47" rx="23.5" stroke="#353535"/>
<path id="Q_Icon" fill-rule="evenodd" clip-rule="evenodd" d="M10.8554 24.2507C17.8525 21.212 22.5105 19.1928 24.8496 18.2132C31.5068 15.4344 32.9062 14.9546 33.8058 14.9346C34.0057 14.9346 34.4456 14.9746 34.7454 15.2145C34.9853 15.4144 35.0453 15.6743 35.0853 15.8742C35.1253 16.0741 35.1653 16.4939 35.1253 16.8138C34.7654 20.6122 33.2061 29.8284 32.4064 34.0666C32.0666 35.8658 31.4068 36.4656 30.7671 36.5256C29.3677 36.6455 28.3081 35.606 26.9687 34.7263C24.8496 33.3469 23.6701 32.4873 21.6109 31.1278C19.2319 29.5685 20.7713 28.7088 22.1307 27.3094C22.4905 26.9496 28.628 21.3519 28.7479 20.8521C28.7679 20.7921 28.7679 20.5522 28.628 20.4323C28.488 20.3123 28.2881 20.3523 28.1282 20.3923C27.9083 20.4323 24.5497 22.6713 18.0124 27.0895C17.0528 27.7492 16.1932 28.0691 15.4135 28.0491C14.5539 28.0291 12.9145 27.5693 11.6751 27.1695C10.1757 26.6897 8.97618 26.4298 9.07614 25.5901C9.13611 25.1503 9.73586 24.7105 10.8554 24.2507Z" fill="#353535"/>
</g>
</svg>
