<svg width="48" height="48" viewBox="0 0 48 48" fill="none" xmlns="http://www.w3.org/2000/svg">
<path d="M15.6558 10.8108C15.4974 10.4259 15.3722 10.2 15.3721 9.87732C15.3719 9.55459 15.5 9.24514 15.7281 9.01702C15.9563 8.78891 16.2657 8.66082 16.5884 8.66095C16.9112 8.66107 17.0623 8.6189 17.5702 8.89646C18.0781 9.17403 43.6281 21.8136 43.6281 21.8136C44.0371 22.0141 44.3817 22.3252 44.6228 22.7116C44.8639 23.0981 44.9918 23.5443 44.9919 23.9996C44.9921 24.4549 44.8646 24.9011 44.6238 25.2873C44.383 25.6736 44.0386 25.9844 43.6298 26.1846C43.6298 26.1846 17.7934 38.8052 17.4513 38.9859C17.1092 39.1666 16.8195 39.2479 16.4968 39.2478C16.1741 39.2477 15.8645 39.1194 15.6363 38.8911C15.408 38.6628 15.2796 38.3532 15.2795 38.0305C15.2794 37.7078 15.3339 37.5795 15.5684 37.103C15.8028 36.6265 21.9289 23.9908 21.9289 23.9908C21.9289 23.9908 15.8143 11.1958 15.6558 10.8108Z" fill="black"/>
</svg>
