<svg width="780" height="192" viewBox="0 0 780 192" fill="none" xmlns="http://www.w3.org/2000/svg">
<g filter="url(#filter0_d_704_16651)">
<path fill-rule="evenodd" clip-rule="evenodd" d="M760 36C760 27.1634 752.837 20 744 20H36C27.1634 20 20 27.1634 20 36V92C20 100.837 27.1634 108 36 108H127C135.837 108 143 115.163 143 124V156C143 164.837 150.163 172 159 172H622C630.837 172 638 164.837 638 156V124C638 115.163 645.163 108 654 108H744C752.837 108 760 100.837 760 92V36Z" fill="white"/>
</g>
<defs>
<filter id="filter0_d_704_16651" x="0" y="0" width="780" height="192" filterUnits="userSpaceOnUse" color-interpolation-filters="sRGB">
<feFlood flood-opacity="0" result="BackgroundImageFix"/>
<feColorMatrix in="SourceAlpha" type="matrix" values="0 0 0 0 0 0 0 0 0 0 0 0 0 0 0 0 0 0 127 0" result="hardAlpha"/>
<feOffset/>
<feGaussianBlur stdDeviation="10"/>
<feComposite in2="hardAlpha" operator="out"/>
<feColorMatrix type="matrix" values="0 0 0 0 0.509804 0 0 0 0 0 0 0 0 0 0.501961 0 0 0 0.25 0"/>
<feBlend mode="normal" in2="BackgroundImageFix" result="effect1_dropShadow_704_16651"/>
<feBlend mode="normal" in="SourceGraphic" in2="effect1_dropShadow_704_16651" result="shape"/>
</filter>
</defs>
</svg>
