<svg width="34" height="34" viewBox="0 0 34 34" fill="none" xmlns="http://www.w3.org/2000/svg">
<path d="M10.4768 7C11.435 7 12.3096 7.08474 13.1007 7.25245C13.8918 7.42016 14.5673 7.69556 15.1308 8.07865C15.6944 8.46173 16.1317 8.97016 16.4428 9.6057C16.7539 10.2412 16.9085 11.0251 16.9085 11.959C16.9085 12.967 16.6774 13.8073 16.217 14.4799C15.7566 15.1525 15.0739 15.7033 14.1727 16.1323C15.4135 16.4871 16.3397 17.1086 16.9512 17.9948C17.5627 18.881 17.8685 19.9508 17.8685 21.2025C17.8685 22.2105 17.6711 23.0844 17.2765 23.8223C16.8818 24.5602 16.3503 25.1622 15.6819 25.6283C15.0135 26.0961 14.2527 26.4404 13.3976 26.6646C12.5372 26.8888 11.6501 27.0017 10.7613 27H1V7H10.4768ZM9.91332 15.0943C10.7026 15.0943 11.3515 14.9071 11.8599 14.5346C12.3683 14.1604 12.6225 13.5549 12.6207 12.7145C12.6207 12.2485 12.5354 11.8654 12.3665 11.567C12.1976 11.2687 11.9719 11.0339 11.6892 10.8662C11.4066 10.6985 11.083 10.582 10.7168 10.5166C10.34 10.4513 9.95776 10.4178 9.57378 10.4195H5.42999V15.0978L9.91332 15.0943ZM10.1675 23.5804C10.5853 23.5822 11.0013 23.5398 11.4084 23.4551C11.803 23.3704 12.1514 23.2309 12.4519 23.0349C12.7523 22.839 12.9923 22.5724 13.1718 22.237C13.3496 21.9016 13.4403 21.4708 13.4403 20.9483C13.4403 19.9226 13.1487 19.1882 12.5656 18.7504C11.9825 18.3108 11.211 18.0919 10.2529 18.0919H5.42999V23.5822L10.1675 23.5804ZM23.4397 23.1603C24.0406 23.7393 24.9063 24.0288 26.0352 24.0288C26.844 24.0288 27.5391 23.8276 28.1222 23.4269C28.7052 23.0261 29.0626 22.6007 29.1941 22.1522H32.7193C32.1557 23.8894 31.29 25.1304 30.1238 25.8772C28.9577 26.624 27.548 26.9982 25.8929 26.9982C24.7463 26.9982 23.7117 26.8164 22.7909 26.4527C21.87 26.089 21.0896 25.57 20.4497 24.8974C19.8097 24.2248 19.3155 23.4233 18.9689 22.4894C18.6222 21.5556 18.448 20.5281 18.448 19.4089C18.448 18.3267 18.6258 17.3186 18.9831 16.3848C19.3404 15.4509 19.8488 14.6441 20.5066 13.9627C21.1643 13.2812 21.95 12.7445 22.862 12.3526C23.7739 11.9607 24.7854 11.7648 25.8947 11.7648C27.1355 11.7648 28.2164 12.0031 29.139 12.4797C30.0598 12.9564 30.8171 13.5955 31.4091 14.3987C32.0011 15.202 32.4295 16.1164 32.6926 17.1439C32.9557 18.1713 33.0499 19.2447 32.9752 20.3657H22.4549C22.51 21.6491 22.8389 22.583 23.4397 23.1603ZM27.9675 15.5427C27.4875 15.0201 26.7587 14.7588 25.7809 14.7588C25.141 14.7588 24.6095 14.8665 24.1881 15.0801C23.7651 15.2955 23.4273 15.5603 23.1731 15.8781C22.9189 16.1959 22.7411 16.5313 22.638 16.8861C22.5349 17.241 22.4727 17.5587 22.4549 17.8377H28.9701C28.7799 16.8314 28.4457 16.0652 27.9675 15.5427ZM21.7687 8.01509H29.9087V10.2571H21.7687V8.01509Z" fill="#353535"/>
</svg>
