<svg width="26" height="26" viewBox="0 0 26 26" fill="none" xmlns="http://www.w3.org/2000/svg">
<g id="Group">
<path id="Vector" d="M3.76948 6.53846C5.29888 6.53846 6.53871 5.29864 6.53871 3.76923C6.53871 2.23983 5.29888 1 3.76948 1C2.24007 1 1.00024 2.23983 1.00024 3.76923C1.00024 5.29864 2.24007 6.53846 3.76948 6.53846Z" stroke="#353535" stroke-width="2" stroke-linecap="round" stroke-linejoin="round"/>
<path id="Vector_2" d="M6.53833 3.76855H24.9999" stroke="#353535" stroke-width="2" stroke-linecap="round" stroke-linejoin="round"/>
<path id="Vector_3" d="M12.9999 15.7689C14.5293 15.7689 15.7692 14.5291 15.7692 12.9997C15.7692 11.4703 14.5293 10.2305 12.9999 10.2305C11.4705 10.2305 10.2307 11.4703 10.2307 12.9997C10.2307 14.5291 11.4705 15.7689 12.9999 15.7689Z" stroke="#353535" stroke-width="2" stroke-linecap="round" stroke-linejoin="round"/>
<path id="Vector_4" d="M1.00024 13H10.231" stroke="#353535" stroke-width="2" stroke-linecap="round" stroke-linejoin="round"/>
<path id="Vector_5" d="M15.7698 13H25.0005" stroke="#353535" stroke-width="2" stroke-linecap="round" stroke-linejoin="round"/>
<path id="Vector_6" d="M22.2304 24.9994C23.7598 24.9994 24.9996 23.7596 24.9996 22.2302C24.9996 20.7008 23.7598 19.4609 22.2304 19.4609C20.701 19.4609 19.4612 20.7008 19.4612 22.2302C19.4612 23.7596 20.701 24.9994 22.2304 24.9994Z" stroke="#353535" stroke-width="2" stroke-linecap="round" stroke-linejoin="round"/>
<path id="Vector_7" d="M19.4618 22.2305H1.00024" stroke="#353535" stroke-width="2" stroke-linecap="round" stroke-linejoin="round"/>
</g>
</svg>
