<svg width="27" height="23" viewBox="0 0 27 23" fill="none" xmlns="http://www.w3.org/2000/svg">
<path fill-rule="evenodd" clip-rule="evenodd" d="M1.8554 9.75069C8.85248 6.71196 13.5105 4.6928 15.8496 3.7132C22.5068 0.934362 23.9062 0.454562 24.8058 0.43457C25.0057 0.43457 25.4456 0.474554 25.7454 0.714454C25.9853 0.914371 26.0453 1.17426 26.0853 1.37418C26.1253 1.5741 26.1653 1.99392 26.1253 2.31379C25.7654 6.11221 24.2061 15.3284 23.4064 19.5666C23.0666 21.3658 22.4068 21.9656 21.7671 22.0256C20.3677 22.1455 19.3081 21.106 17.9687 20.2263C15.8496 18.8469 14.6701 17.9873 12.6109 16.6278C10.2319 15.0685 11.7713 14.2088 13.1307 12.8094C13.4905 12.4496 19.628 6.8519 19.7479 6.35211C19.7679 6.29213 19.7679 6.05223 19.628 5.93228C19.488 5.81233 19.2881 5.85231 19.1282 5.8923C18.9083 5.93228 15.5497 8.17135 9.01241 12.5895C8.05281 13.2492 7.19317 13.5691 6.4135 13.5491C5.55385 13.5291 3.91454 13.0693 2.67505 12.6695C1.17568 12.1897 -0.0238208 11.9298 0.0761375 11.0901C0.136113 10.6503 0.735862 10.2105 1.8554 9.75069Z" fill="black"/>
</svg>
