<svg width="298" height="156" viewBox="0 0 298 156" fill="none" xmlns="http://www.w3.org/2000/svg">
<g filter="url(#filter0_d_704_17036)">
<path fill-rule="evenodd" clip-rule="evenodd" d="M278 32C278 25.3726 272.627 20 266 20H32C25.3726 20 20 25.3726 20 32V60C20 66.6274 25.3726 72 32 72H73C76.3137 72 79 74.6863 79 78C79 81.3137 76.3137 84 73 84H41C34.3726 84 29 89.3726 29 96V124C29 130.627 34.3726 136 41 136H256C262.627 136 268 130.627 268 124V96C268 89.3726 262.627 84 256 84H224C220.686 84 218 81.3137 218 78C218 74.6863 220.686 72 224 72H266C272.627 72 278 66.6274 278 60V32Z" fill="white"/>
</g>
<defs>
<filter id="filter0_d_704_17036" x="0" y="0" width="298" height="156" filterUnits="userSpaceOnUse" color-interpolation-filters="sRGB">
<feFlood flood-opacity="0" result="BackgroundImageFix"/>
<feColorMatrix in="SourceAlpha" type="matrix" values="0 0 0 0 0 0 0 0 0 0 0 0 0 0 0 0 0 0 127 0" result="hardAlpha"/>
<feOffset/>
<feGaussianBlur stdDeviation="10"/>
<feComposite in2="hardAlpha" operator="out"/>
<feColorMatrix type="matrix" values="0 0 0 0 0.509804 0 0 0 0 0 0 0 0 0 0.501961 0 0 0 0.25 0"/>
<feBlend mode="normal" in2="BackgroundImageFix" result="effect1_dropShadow_704_17036"/>
<feBlend mode="normal" in="SourceGraphic" in2="effect1_dropShadow_704_17036" result="shape"/>
</filter>
</defs>
</svg>
