<svg width="26" height="27" viewBox="0 0 26 27" fill="none" xmlns="http://www.w3.org/2000/svg">
<path fill-rule="evenodd" clip-rule="evenodd" d="M1.83701 19.414L0 26.1211L6.86376 24.3213C8.75497 25.3525 10.8841 25.8961 13.0509 25.8969H13.0565C20.1925 25.8969 26.0013 20.0897 26.0045 12.9534C26.0057 9.49477 24.6605 6.24274 22.2157 3.79615C19.7709 1.34956 16.5201 0.00175976 13.0567 0C5.91965 0 0.111745 5.80614 0.108753 12.943C0.106011 15.2144 0.702128 17.4464 1.83701 19.414ZM9.35961 6.642C9.60296 6.67392 9.87247 6.70984 10.0803 7.26158C10.2218 7.638 10.4537 8.33598 10.6388 8.89346C10.776 9.30651 10.8876 9.64244 10.9178 9.71328C10.9889 9.87973 11.0285 10.0706 10.8946 10.2711C10.874 10.3019 10.855 10.331 10.8368 10.3588C10.7367 10.5117 10.6628 10.6246 10.5028 10.7676C10.4389 10.8247 10.3725 10.8866 10.3062 10.9484C10.1765 11.0694 10.0469 11.1902 9.93629 11.2748C9.74956 11.4167 9.55445 11.5717 9.72523 11.9074C9.89602 12.2432 10.4874 13.345 11.4286 14.2802C12.4416 15.2869 13.3589 15.7576 13.8233 15.9959C13.9134 16.0421 13.9865 16.0797 14.0399 16.1106C14.3684 16.3011 14.5707 16.2932 14.7906 16.1003C15.0105 15.9074 15.7335 15.255 15.992 14.9591C16.2505 14.6633 16.4742 14.7372 16.7786 14.8723C17.0831 15.0075 18.6975 15.9315 19.026 16.1221C19.0906 16.1596 19.151 16.1936 19.207 16.2251C19.4358 16.3537 19.5902 16.4406 19.649 16.5535C19.7223 16.6941 19.663 17.3282 19.3083 18.0417C18.9537 18.7552 17.4869 19.3386 16.853 19.3327C16.7919 19.3321 16.7311 19.333 16.6686 19.334C16.0814 19.3429 15.3404 19.3541 12.8113 18.1557C9.69617 16.6796 7.84255 13.5676 7.46217 12.929C7.43134 12.8773 7.41019 12.8418 7.39883 12.8247L7.39523 12.8193C7.23093 12.5725 6.15995 10.9637 6.30432 9.41597C6.44041 7.95699 7.28756 7.26425 7.67766 6.94524C7.70453 6.92327 7.72924 6.90307 7.75139 6.88451C8.09514 6.59657 8.47416 6.55193 8.70288 6.57326L9.35961 6.642Z" fill="black"/>
</svg>
