<svg width="432" height="432" viewBox="0 0 432 432" fill="none" xmlns="http://www.w3.org/2000/svg">
<rect width="432" height="432" fill="#E9F1F6"/>
<path fill-rule="evenodd" clip-rule="evenodd" d="M104.246 67.7642C105.186 66.7525 106.768 66.6939 107.779 67.6334L113.496 72.9416C114.508 73.8811 114.566 75.4629 113.627 76.4747C112.687 77.4864 111.105 77.545 110.094 76.6055L104.377 71.2974C103.365 70.3578 103.307 68.776 104.246 67.7642ZM94.5666 71.4154C95.7448 70.6954 97.2835 71.0668 98.0034 72.2449L102.495 79.5947C103.215 80.7728 102.844 82.3116 101.665 83.0315C100.487 83.7515 98.9485 83.3801 98.2286 82.202L93.737 74.8522C93.0171 73.6741 93.3885 72.1353 94.5666 71.4154Z" fill="#D9DEF0"/>
<path d="M109.938 49.0492C109.938 58.9716 101.894 67.0153 91.9719 67.0153C82.0495 67.0153 74.0058 58.9716 74.0058 49.0492C74.0058 39.1268 82.0495 31.0831 91.9719 31.0831C101.894 31.0831 109.938 39.1268 109.938 49.0492Z" fill="#D9DEF0"/>
<path fill-rule="evenodd" clip-rule="evenodd" d="M13.1754 67.7645C12.2359 66.7528 10.6541 66.6942 9.64232 67.6337L3.92584 72.9419C2.91406 73.8814 2.85547 75.4632 3.79498 76.475C4.73449 77.4867 6.31631 77.5453 7.32809 76.6058L13.0446 71.2977C14.0564 70.3582 14.1149 68.7763 13.1754 67.7645ZM22.8551 71.4157C21.6769 70.6957 20.1382 71.0671 19.4182 72.2453L14.9267 79.595C14.2068 80.7732 14.5782 82.3119 15.7563 83.0318C16.9344 83.7518 18.4732 83.3804 19.1931 82.2023L23.6847 74.8525C24.4046 73.6744 24.0332 72.1356 22.8551 71.4157Z" fill="#D9DEF0"/>
<path d="M5.64171 49.0495C5.64171 58.9719 13.6854 67.0156 23.6078 67.0156C33.5302 67.0156 41.5739 58.9719 41.5739 49.0495C41.5739 39.1271 33.5302 31.0834 23.6078 31.0834C13.6854 31.0834 5.64171 39.1271 5.64171 49.0495Z" fill="#D9DEF0"/>
<path fill-rule="evenodd" clip-rule="evenodd" d="M47.1489 62.7914C48.5296 62.7914 49.6489 63.9107 49.6489 65.2914C49.6489 71.1948 49.6968 76.9137 51.037 81.1671C51.6907 83.2416 52.5918 84.7521 53.7606 85.7453C54.887 86.7025 56.4742 87.3611 58.8866 87.3611C61.2998 87.3611 62.835 86.7028 63.8976 85.7708C65.0062 84.7986 65.8497 83.3087 66.444 81.231C67.5891 77.2272 67.5842 71.9649 67.579 66.4175C67.5786 66.0433 67.5783 65.6679 67.5783 65.2914C67.5783 63.9107 68.6976 62.7914 70.0783 62.7914C71.459 62.7914 72.5783 63.9107 72.5783 65.2914C72.5783 65.728 72.5791 66.1704 72.5799 66.6175C72.5898 71.9257 72.6009 77.8871 71.2512 82.6059C70.5026 85.2232 69.2757 87.7046 67.1945 89.5299C65.0674 91.3955 62.2935 92.3611 58.8866 92.3611C55.4787 92.3611 52.6886 91.3958 50.5229 89.5554C48.3995 87.7511 47.0938 85.2903 46.2681 82.6698C44.6496 77.5332 44.6489 70.9672 44.6489 65.2914C44.6489 63.9107 45.7682 62.7914 47.1489 62.7914Z" fill="#D9DEF0"/>
<path fill-rule="evenodd" clip-rule="evenodd" d="M58.6161 66.0675C59.9968 66.0675 61.1161 67.1867 61.1161 68.5675V77.3033C61.1161 78.6841 59.9968 79.8033 58.6161 79.8033C57.2354 79.8033 56.1161 78.6841 56.1161 77.3033V68.5675C56.1161 67.1867 57.2354 66.0675 58.6161 66.0675Z" fill="#D9DEF0"/>
<path fill-rule="evenodd" clip-rule="evenodd" d="M44.7183 64.7064C45.0413 63.3641 46.3913 62.5378 47.7336 62.8607L47.7478 62.8641L47.7997 62.8764C47.8466 62.8874 47.9176 62.904 48.0104 62.9254C48.1962 62.9682 48.4693 63.0299 48.8118 63.1043C49.4976 63.2534 50.4569 63.4522 51.5479 63.6508C53.7729 64.0557 56.386 64.4294 58.3417 64.4294C60.2975 64.4294 62.9106 64.0557 65.1356 63.6508C66.2265 63.4522 67.1859 63.2534 67.8717 63.1043C68.2142 63.0299 68.4872 62.9682 68.673 62.9254C68.7659 62.904 68.8369 62.8874 68.8838 62.8764L68.9357 62.8641L68.9496 62.8608C70.2919 62.5379 71.6421 63.3641 71.9652 64.7064C72.2883 66.0488 71.4619 67.3989 70.1196 67.722L69.5968 65.55C70.1195 67.722 70.1196 67.722 70.1196 67.722L70.0942 67.728L70.0304 67.7431C69.9754 67.7561 69.8959 67.7747 69.7941 67.7981C69.5906 67.8449 69.2977 67.9111 68.9335 67.9903C68.2061 68.1484 67.1898 68.359 66.0309 68.57C63.7562 68.984 60.7728 69.4294 58.3417 69.4294C55.9106 69.4294 52.9273 68.984 50.6526 68.57C49.4937 68.359 48.4774 68.1484 47.7499 67.9903C47.3858 67.9111 47.0929 67.8449 46.8893 67.7981C46.7876 67.7747 46.708 67.7561 46.6531 67.7431L46.5893 67.728L46.5649 67.7222C46.5649 67.7222 46.5639 67.722 47.1489 65.2914L46.5639 67.722C45.2215 67.3989 44.3952 66.0488 44.7183 64.7064Z" fill="#D9DEF0"/>
<path fill-rule="evenodd" clip-rule="evenodd" d="M100.934 8.33824C101.174 9.69798 100.266 10.9946 98.9065 11.2344L77.1297 15.0742C75.7699 15.314 74.4733 14.4061 74.2335 13.0463C73.9938 11.6866 74.9017 10.3899 76.2614 10.1502L98.0382 6.31034C99.3979 6.07059 100.695 6.97851 100.934 8.33824Z" fill="#D9DEF0"/>
<path fill-rule="evenodd" clip-rule="evenodd" d="M43.6714 13.0465C43.4316 14.4062 42.135 15.3141 40.7752 15.0744L18.9985 11.2345C17.6387 10.9948 16.7308 9.69812 16.9706 8.33838C17.2103 6.97864 18.507 6.07072 19.8667 6.31048L41.6435 10.1503C43.0032 10.3901 43.9111 11.6867 43.6714 13.0465Z" fill="#D9DEF0"/>
<path fill-rule="evenodd" clip-rule="evenodd" d="M260.998 21.2418C260.758 22.6015 259.461 23.5094 258.102 23.2697L231.184 18.5233C229.824 18.2835 228.916 16.9869 229.156 15.6271C229.395 14.2674 230.692 13.3595 232.052 13.5992L258.97 18.3456C260.33 18.5854 261.238 19.882 260.998 21.2418Z" fill="#D9DEF0"/>
<path fill-rule="evenodd" clip-rule="evenodd" d="M315.664 110.531C315.425 111.89 314.128 112.798 312.768 112.559L285.85 107.812C284.49 107.572 283.583 106.276 283.822 104.916C284.062 103.556 285.359 102.648 286.718 102.888L313.637 107.635C314.996 107.874 315.904 109.171 315.664 110.531Z" fill="#D9DEF0"/>
<path fill-rule="evenodd" clip-rule="evenodd" d="M139.901 42.2751C138.561 41.9411 137.746 40.5842 138.08 39.2445L144.693 12.7231C145.027 11.3834 146.384 10.5682 147.723 10.9022C149.063 11.2362 149.878 12.593 149.544 13.9327L142.932 40.4541C142.598 41.7938 141.241 42.6091 139.901 42.2751Z" fill="#D9DEF0"/>
<path fill-rule="evenodd" clip-rule="evenodd" d="M78.8567 133.386C77.517 133.052 76.7017 131.695 77.0358 130.356L83.6483 103.834C83.9823 102.495 85.3392 101.679 86.6789 102.013C88.0186 102.347 88.8338 103.704 88.4998 105.044L81.8873 131.565C81.5532 132.905 80.1964 133.72 78.8567 133.386Z" fill="#D9DEF0"/>
<path fill-rule="evenodd" clip-rule="evenodd" d="M91.5522 224.452C91.6922 223.079 92.9193 222.079 94.2929 222.219L121.485 224.991C122.859 225.131 123.859 226.358 123.719 227.732C123.579 229.105 122.352 230.105 120.978 229.965L93.7857 227.193C92.4121 227.053 91.4121 225.826 91.5522 224.452Z" fill="#D9DEF0"/>
<path fill-rule="evenodd" clip-rule="evenodd" d="M10.4633 292.785C10.6033 291.412 11.8304 290.412 13.204 290.552L40.3963 293.324C41.7699 293.464 42.7699 294.691 42.6299 296.065C42.4898 297.439 41.2628 298.439 39.8892 298.299L12.6968 295.526C11.3232 295.386 10.3232 294.159 10.4633 292.785Z" fill="#D9DEF0"/>
<path fill-rule="evenodd" clip-rule="evenodd" d="M154.315 231.64C153.001 231.216 152.28 229.807 152.705 228.493L161.535 201.159C161.959 199.845 163.369 199.124 164.683 199.549C165.996 199.973 166.717 201.383 166.293 202.696L157.463 230.03C157.038 231.344 155.629 232.065 154.315 231.64Z" fill="#D9DEF0"/>
<path fill-rule="evenodd" clip-rule="evenodd" d="M74.906 304.219C73.5252 304.219 72.406 303.1 72.406 301.719V272.994C72.406 271.614 73.5252 270.494 74.906 270.494C76.2867 270.494 77.406 271.614 77.406 272.994V301.719C77.406 303.1 76.2867 304.219 74.906 304.219Z" fill="#D9DEF0"/>
<path fill-rule="evenodd" clip-rule="evenodd" d="M63.2931 429.773C62.0763 429.121 61.6187 427.605 62.2711 426.388L75.8441 401.073C76.4965 399.856 78.0118 399.399 79.2287 400.051C80.4455 400.704 80.9031 402.219 80.2507 403.436L66.6777 428.751C66.0253 429.968 64.51 430.426 63.2931 429.773Z" fill="#D9DEF0"/>
<path fill-rule="evenodd" clip-rule="evenodd" d="M343.99 77.8084C342.65 77.4744 341.835 76.1176 342.169 74.7779L348.782 48.2565C349.116 46.9168 350.472 46.1015 351.812 46.4355C353.152 46.7695 353.967 48.1264 353.633 49.4661L347.021 75.9875C346.687 77.3272 345.33 78.1424 343.99 77.8084Z" fill="#D9DEF0"/>
<path fill-rule="evenodd" clip-rule="evenodd" d="M232.185 68.3335C231.495 67.1377 231.905 65.6088 233.1 64.9184L256.772 51.2517C257.967 50.5614 259.496 50.9711 260.187 52.1668C260.877 53.3625 260.467 54.8915 259.272 55.5819L235.6 69.2485C234.405 69.9389 232.876 69.5292 232.185 68.3335Z" fill="#D9DEF0"/>
<path fill-rule="evenodd" clip-rule="evenodd" d="M316.919 145.778C316.228 144.582 316.638 143.053 317.834 142.363L341.505 128.696C342.701 128.006 344.23 128.416 344.92 129.611C345.61 130.807 345.201 132.336 344.005 133.026L320.334 146.693C319.138 147.383 317.609 146.974 316.919 145.778Z" fill="#D9DEF0"/>
<path fill-rule="evenodd" clip-rule="evenodd" d="M342.43 222.311C341.739 221.116 342.149 219.587 343.345 218.896L367.016 205.23C368.212 204.539 369.741 204.949 370.431 206.145C371.122 207.34 370.712 208.869 369.516 209.56L345.845 223.226C344.649 223.917 343.12 223.507 342.43 222.311Z" fill="#D9DEF0"/>
<path fill-rule="evenodd" clip-rule="evenodd" d="M316.008 317.067C315.317 315.871 315.727 314.342 316.923 313.652L340.594 299.985C341.79 299.295 343.319 299.704 344.009 300.9C344.699 302.096 344.29 303.625 343.094 304.315L319.423 317.982C318.227 318.672 316.698 318.263 316.008 317.067Z" fill="#D9DEF0"/>
<path fill-rule="evenodd" clip-rule="evenodd" d="M276.918 366.358C277.687 365.211 279.24 364.905 280.387 365.674L303.091 380.893C304.238 381.662 304.544 383.215 303.775 384.362C303.007 385.509 301.454 385.815 300.307 385.046L277.603 369.827C276.456 369.058 276.149 367.505 276.918 366.358Z" fill="#D9DEF0"/>
<path fill-rule="evenodd" clip-rule="evenodd" d="M186.53 343.948C186.366 345.319 185.122 346.298 183.751 346.135L156.61 342.899C155.239 342.736 154.26 341.492 154.423 340.121C154.587 338.75 155.831 337.771 157.202 337.934L184.343 341.17C185.714 341.333 186.693 342.577 186.53 343.948Z" fill="#D9DEF0"/>
<path fill-rule="evenodd" clip-rule="evenodd" d="M127.307 411.37C127.144 412.741 125.9 413.72 124.529 413.557L97.3878 410.322C96.0168 410.158 95.0378 408.914 95.2013 407.543C95.3647 406.172 96.6086 405.193 97.9796 405.357L125.121 408.592C126.492 408.755 127.471 409.999 127.307 411.37Z" fill="#D9DEF0"/>
<path fill-rule="evenodd" clip-rule="evenodd" d="M229.342 346.047C230.257 347.08 230.162 348.66 229.129 349.576L208.676 367.709C207.643 368.625 206.063 368.53 205.147 367.496C204.231 366.463 204.326 364.883 205.359 363.967L225.812 345.835C226.846 344.919 228.426 345.014 229.342 346.047Z" fill="#D9DEF0"/>
<path fill-rule="evenodd" clip-rule="evenodd" d="M129.853 376.683C130.876 375.756 132.457 375.833 133.384 376.856L151.742 397.107C152.669 398.13 152.592 399.711 151.569 400.638C150.546 401.566 148.965 401.488 148.038 400.465L129.68 380.214C128.752 379.191 128.83 377.61 129.853 376.683Z" fill="#D9DEF0"/>
<path fill-rule="evenodd" clip-rule="evenodd" d="M270.795 387.117C272.176 387.117 273.295 388.236 273.295 389.617V416.95C273.295 418.331 272.176 419.45 270.795 419.45C269.414 419.45 268.295 418.331 268.295 416.95V389.617C268.295 388.236 269.414 387.117 270.795 387.117Z" fill="#D9DEF0"/>
<path fill-rule="evenodd" clip-rule="evenodd" d="M379.542 401.122C380.232 402.318 379.823 403.847 378.627 404.537L354.956 418.204C353.76 418.894 352.231 418.485 351.541 417.289C350.85 416.093 351.26 414.564 352.456 413.874L376.127 400.207C377.323 399.517 378.852 399.927 379.542 401.122Z" fill="#D9DEF0"/>
<path fill-rule="evenodd" clip-rule="evenodd" d="M407.552 267.534C406.19 267.309 405.268 266.022 405.493 264.66L409.946 237.692C410.171 236.33 411.458 235.408 412.82 235.633C414.182 235.858 415.104 237.144 414.879 238.507L410.426 265.475C410.201 266.837 408.915 267.759 407.552 267.534Z" fill="#D9DEF0"/>
<path fill-rule="evenodd" clip-rule="evenodd" d="M400.812 205.118C401.566 203.962 403.115 203.635 404.271 204.389L427.169 219.315C428.326 220.069 428.652 221.618 427.898 222.775C427.144 223.931 425.596 224.258 424.439 223.504L401.541 208.578C400.384 207.824 400.058 206.275 400.812 205.118Z" fill="#D9DEF0"/>
<path fill-rule="evenodd" clip-rule="evenodd" d="M254.628 200.112C254.628 198.731 255.747 197.612 257.128 197.612H284.462C285.842 197.612 286.962 198.731 286.962 200.112C286.962 201.493 285.842 202.612 284.462 202.612H257.128C255.747 202.612 254.628 201.493 254.628 200.112Z" fill="#D9DEF0"/>
<path fill-rule="evenodd" clip-rule="evenodd" d="M164.763 265.133C164.073 263.938 164.482 262.409 165.678 261.718L189.35 248.052C190.545 247.361 192.074 247.771 192.765 248.967C193.455 250.163 193.045 251.691 191.85 252.382L168.178 266.049C166.982 266.739 165.453 266.329 164.763 265.133Z" fill="#D9DEF0"/>
<path fill-rule="evenodd" clip-rule="evenodd" d="M43.5853 332.556C42.895 331.36 43.3047 329.831 44.5004 329.141L68.1718 315.474C69.3675 314.784 70.8965 315.193 71.5868 316.389C72.2772 317.585 71.8675 319.114 70.6718 319.804L47.0004 333.471C45.8047 334.161 44.2757 333.751 43.5853 332.556Z" fill="#D9DEF0"/>
<path fill-rule="evenodd" clip-rule="evenodd" d="M371.585 28.2446C370.895 27.0488 371.305 25.5199 372.5 24.8295L396.172 11.1628C397.367 10.4725 398.896 10.8822 399.587 12.0779C400.277 13.2736 399.867 14.8026 398.672 15.493L375 29.1596C373.805 29.85 372.276 29.4403 371.585 28.2446Z" fill="#D9DEF0"/>
<path fill-rule="evenodd" clip-rule="evenodd" d="M393.452 161.267C392.762 160.071 393.171 158.542 394.367 157.852L418.038 144.185C419.234 143.495 420.763 143.904 421.453 145.1C422.144 146.296 421.734 147.825 420.538 148.515L396.867 162.182C395.671 162.872 394.142 162.463 393.452 161.267Z" fill="#D9DEF0"/>
<path fill-rule="evenodd" clip-rule="evenodd" d="M356.939 197.96C355.773 198.7 354.229 198.355 353.489 197.189L338.84 174.112C338.1 172.946 338.446 171.401 339.611 170.662C340.777 169.922 342.322 170.267 343.062 171.432L357.71 194.509C358.45 195.675 358.105 197.22 356.939 197.96Z" fill="#D9DEF0"/>
<path fill-rule="evenodd" clip-rule="evenodd" d="M364.116 35.88C365.247 35.0881 366.806 35.363 367.598 36.494L383.276 58.8841C384.068 60.0151 383.793 61.574 382.662 62.366C381.531 63.1579 379.972 62.883 379.18 61.752L363.503 39.3619C362.711 38.2308 362.985 36.672 364.116 35.88Z" fill="#D9DEF0"/>
<path fill-rule="evenodd" clip-rule="evenodd" d="M236.561 147.947C237.692 147.155 239.251 147.43 240.043 148.561L255.72 170.951C256.512 172.082 256.238 173.641 255.107 174.433C253.976 175.225 252.417 174.95 251.625 173.819L235.947 151.428C235.155 150.297 235.43 148.739 236.561 147.947Z" fill="#D9DEF0"/>
<path fill-rule="evenodd" clip-rule="evenodd" d="M122.739 288.039C134.822 288.039 144.617 278.244 144.617 266.161C144.617 254.078 134.822 244.283 122.739 244.283C110.657 244.283 100.862 254.078 100.862 266.161C100.862 278.244 110.657 288.039 122.739 288.039ZM122.739 293.039C137.583 293.039 149.617 281.005 149.617 266.161C149.617 251.317 137.583 239.283 122.739 239.283C107.895 239.283 95.8615 251.317 95.8615 266.161C95.8615 281.005 107.895 293.039 122.739 293.039Z" fill="#D9DEF0"/>
<path fill-rule="evenodd" clip-rule="evenodd" d="M37.0948 395.55C49.1776 395.55 58.9726 385.755 58.9726 373.672C58.9726 361.59 49.1776 351.795 37.0948 351.795C25.0121 351.795 15.2171 361.59 15.2171 373.672C15.2171 385.755 25.0121 395.55 37.0948 395.55ZM37.0948 400.55C51.939 400.55 63.9726 388.517 63.9726 373.672C63.9726 358.828 51.939 346.795 37.0948 346.795C22.2507 346.795 10.2171 358.828 10.2171 373.672C10.2171 388.517 22.2507 400.55 37.0948 400.55Z" fill="#D9DEF0"/>
<path fill-rule="evenodd" clip-rule="evenodd" d="M264.873 351.817C276.955 351.817 286.75 342.022 286.75 329.939C286.75 317.856 276.955 308.061 264.873 308.061C252.79 308.061 242.995 317.856 242.995 329.939C242.995 342.022 252.79 351.817 264.873 351.817ZM264.873 356.817C279.717 356.817 291.75 344.783 291.75 329.939C291.75 315.095 279.717 303.061 264.873 303.061C250.028 303.061 237.995 315.095 237.995 329.939C237.995 344.783 250.028 356.817 264.873 356.817Z" fill="#D9DEF0"/>
<path fill-rule="evenodd" clip-rule="evenodd" d="M303.139 75.7501C315.222 75.7501 325.017 65.9551 325.017 53.8724C325.017 41.7896 315.222 31.9946 303.139 31.9946C291.057 31.9946 281.262 41.7896 281.262 53.8724C281.262 65.9551 291.057 75.7501 303.139 75.7501ZM303.139 80.7501C317.983 80.7501 330.017 68.7165 330.017 53.8724C330.017 39.0282 317.983 26.9946 303.139 26.9946C288.295 26.9946 276.262 39.0282 276.262 53.8724C276.262 68.7165 288.295 80.7501 303.139 80.7501Z" fill="#D9DEF0"/>
<path fill-rule="evenodd" clip-rule="evenodd" d="M392.428 130.417C404.511 130.417 414.306 120.622 414.306 108.539C414.306 96.4563 404.511 86.6612 392.428 86.6612C380.345 86.6612 370.55 96.4563 370.55 108.539C370.55 120.622 380.345 130.417 392.428 130.417ZM392.428 135.417C407.272 135.417 419.306 123.383 419.306 108.539C419.306 93.6948 407.272 81.6612 392.428 81.6612C377.584 81.6612 365.55 93.6948 365.55 108.539C365.55 123.383 377.584 135.417 392.428 135.417Z" fill="#D9DEF0"/>
<path fill-rule="evenodd" clip-rule="evenodd" d="M40.7393 177.795C52.822 177.795 62.6171 168 62.6171 155.917C62.6171 143.834 52.822 134.039 40.7393 134.039C28.6565 134.039 18.8615 143.834 18.8615 155.917C18.8615 168 28.6565 177.795 40.7393 177.795ZM40.7393 182.795C55.5835 182.795 67.6171 170.761 67.6171 155.917C67.6171 141.073 55.5835 129.039 40.7393 129.039C25.8951 129.039 13.8615 141.073 13.8615 155.917C13.8615 170.761 25.8951 182.795 40.7393 182.795Z" fill="#D9DEF0"/>
<path d="M187.884 11.9612C187.884 16.2384 184.416 19.7057 180.139 19.7057C175.862 19.7057 172.395 16.2384 172.395 11.9612C172.395 7.6841 175.862 4.2168 180.139 4.2168C184.416 4.2168 187.884 7.6841 187.884 11.9612Z" fill="#D9DEF0"/>
<path d="M416.573 45.6724C416.573 49.9495 413.105 53.4168 408.828 53.4168C404.551 53.4168 401.084 49.9495 401.084 45.6724C401.084 41.3952 404.551 37.9279 408.828 37.9279C413.105 37.9279 416.573 41.3952 416.573 45.6724Z" fill="#D9DEF0"/>
<path d="M335.484 16.5168C335.484 20.7939 332.016 24.2612 327.739 24.2612C323.462 24.2612 319.995 20.7939 319.995 16.5168C319.995 12.2397 323.462 8.77235 327.739 8.77235C332.016 8.77235 335.484 12.2397 335.484 16.5168Z" fill="#D9DEF0"/>
<path d="M83.106 187.806C83.106 192.083 79.6386 195.55 75.3615 195.55C71.0844 195.55 67.6171 192.083 67.6171 187.806C67.6171 183.529 71.0844 180.061 75.3615 180.061C79.6386 180.061 83.106 183.529 83.106 187.806Z" fill="#D9DEF0"/>
<path d="M35.9497 109.45C35.9497 113.727 32.4824 117.195 28.2053 117.195C23.9282 117.195 20.4609 113.727 20.4609 109.45C20.4609 105.173 23.9282 101.706 28.2053 101.706C32.4824 101.706 35.9497 105.173 35.9497 109.45Z" fill="#D9DEF0"/>
<path d="M23.8837 203.295C23.8837 207.572 20.4164 211.039 16.1393 211.039C11.8621 211.039 8.39484 207.572 8.39484 203.295C8.39484 199.017 11.8621 195.55 16.1393 195.55C20.4164 195.55 23.8837 199.017 23.8837 203.295Z" fill="#D9DEF0"/>
<path d="M258.039 123.117C258.039 127.394 254.572 130.861 250.295 130.861C246.018 130.861 242.55 127.394 242.55 123.117C242.55 118.84 246.018 115.372 250.295 115.372C254.572 115.372 258.039 118.84 258.039 123.117Z" fill="#D9DEF0"/>
<path d="M198.817 219.695C198.817 223.972 195.35 227.439 191.073 227.439C186.795 227.439 183.328 223.972 183.328 219.695C183.328 215.417 186.795 211.95 191.073 211.95C195.35 211.95 198.817 215.417 198.817 219.695Z" fill="#D9DEF0"/>
<path d="M218.861 325.383C218.861 329.661 215.394 333.128 211.117 333.128C206.84 333.128 203.373 329.661 203.373 325.383C203.373 321.106 206.84 317.639 211.117 317.639C215.394 317.639 218.861 321.106 218.861 325.383Z" fill="#D9DEF0"/>
<path d="M94.9504 382.783C94.9504 387.061 91.4831 390.528 87.2059 390.528C82.9288 390.528 79.4615 387.061 79.4615 382.783C79.4615 378.506 82.9288 375.039 87.2059 375.039C91.4831 375.039 94.9504 378.506 94.9504 382.783Z" fill="#D9DEF0"/>
<path d="M249.839 398.272C249.839 402.549 246.372 406.017 242.095 406.017C237.818 406.017 234.35 402.549 234.35 398.272C234.35 393.995 237.818 390.528 242.095 390.528C246.372 390.528 249.839 393.995 249.839 398.272Z" fill="#D9DEF0"/>
<path d="M383.773 299.872C383.773 304.149 380.305 307.617 376.028 307.617C371.751 307.617 368.284 304.149 368.284 299.872C368.284 295.595 371.751 292.128 376.028 292.128C380.305 292.128 383.773 295.595 383.773 299.872Z" fill="#D9DEF0"/>
<path d="M416.573 420.139C416.573 424.416 413.105 427.883 408.828 427.883C404.551 427.883 401.084 424.416 401.084 420.139C401.084 415.862 404.551 412.395 408.828 412.395C413.105 412.395 416.573 415.862 416.573 420.139Z" fill="#D9DEF0"/>
<path d="M366.461 160.472C366.461 164.749 362.994 168.217 358.717 168.217C354.44 168.217 350.973 164.749 350.973 160.472C350.973 156.195 354.44 152.728 358.717 152.728C362.994 152.728 366.461 156.195 366.461 160.472Z" fill="#D9DEF0"/>
<path d="M326.373 190.539C326.373 194.816 322.905 198.283 318.628 198.283C314.351 198.283 310.884 194.816 310.884 190.539C310.884 186.262 314.351 182.795 318.628 182.795C322.905 182.795 326.373 186.262 326.373 190.539Z" fill="#D9DEF0"/>
<path d="M163.284 301.695C163.284 305.972 159.816 309.439 155.539 309.439C151.262 309.439 147.795 305.972 147.795 301.695C147.795 297.417 151.262 293.95 155.539 293.95C159.816 293.95 163.284 297.417 163.284 301.695Z" fill="#D9DEF0"/>
<path d="M28.4393 264.339C28.4393 268.616 24.972 272.083 20.6948 272.083C16.4177 272.083 12.9504 268.616 12.9504 264.339C12.9504 260.062 16.4177 256.595 20.6948 256.595C24.972 256.595 28.4393 260.062 28.4393 264.339Z" fill="#D9DEF0"/>
<path d="M178.773 98.0612C178.773 100.074 177.141 101.706 175.128 101.706C173.115 101.706 171.484 100.074 171.484 98.0612C171.484 96.0485 173.115 94.4168 175.128 94.4168C177.141 94.4168 178.773 96.0485 178.773 98.0612Z" fill="#D9DEF0"/>
<path d="M11.7497 129.039C11.7497 131.052 10.1181 132.683 8.1053 132.683C6.09253 132.683 4.46086 131.052 4.46086 129.039C4.46086 127.026 6.09253 125.395 8.1053 125.395C10.1181 125.395 11.7497 127.026 11.7497 129.039Z" fill="#D9DEF0"/>
<path d="M87.6615 242.928C87.6615 244.941 86.0298 246.572 84.0171 246.572C82.0043 246.572 80.3726 244.941 80.3726 242.928C80.3726 240.915 82.0043 239.283 84.0171 239.283C86.0298 239.283 87.6615 240.915 87.6615 242.928Z" fill="#D9DEF0"/>
<path d="M28.4393 321.283C28.4393 323.296 26.8076 324.928 24.7948 324.928C22.7821 324.928 21.1504 323.296 21.1504 321.283C21.1504 319.271 22.7821 317.639 24.7948 317.639C26.8076 317.639 28.4393 319.271 28.4393 321.283Z" fill="#D9DEF0"/>
<path d="M190.617 297.595C190.617 299.607 188.985 301.239 186.973 301.239C184.96 301.239 183.328 299.607 183.328 297.595C183.328 295.582 184.96 293.95 186.973 293.95C188.985 293.95 190.617 295.582 190.617 297.595Z" fill="#D9DEF0"/>
<path d="M154.173 362.283C154.173 364.296 152.541 365.928 150.528 365.928C148.515 365.928 146.884 364.296 146.884 362.283C146.884 360.271 148.515 358.639 150.528 358.639C152.541 358.639 154.173 360.271 154.173 362.283Z" fill="#D9DEF0"/>
<path d="M26.6171 416.95C26.6171 418.963 24.9854 420.595 22.9726 420.595C20.9598 420.595 19.3282 418.963 19.3282 416.95C19.3282 414.937 20.9598 413.306 22.9726 413.306C24.9854 413.306 26.6171 414.937 26.6171 416.95Z" fill="#D9DEF0"/>
<path d="M424.773 293.95C424.773 295.963 423.141 297.595 421.128 297.595C419.115 297.595 417.484 295.963 417.484 293.95C417.484 291.937 419.115 290.306 421.128 290.306C423.141 290.306 424.773 291.937 424.773 293.95Z" fill="#D9DEF0"/>
<path d="M310.884 416.95C310.884 418.963 309.252 420.595 307.239 420.595C305.226 420.595 303.595 418.963 303.595 416.95C303.595 414.937 305.226 413.306 307.239 413.306C309.252 413.306 310.884 414.937 310.884 416.95Z" fill="#D9DEF0"/>
<path d="M238.906 370.483C238.906 372.496 237.274 374.128 235.262 374.128C233.249 374.128 231.617 372.496 231.617 370.483C231.617 368.471 233.249 366.839 235.262 366.839C237.274 366.839 238.906 368.471 238.906 370.483Z" fill="#D9DEF0"/>
<path d="M310.884 342.239C310.884 344.252 309.252 345.883 307.239 345.883C305.226 345.883 303.595 344.252 303.595 342.239C303.595 340.226 305.226 338.595 307.239 338.595C309.252 338.595 310.884 340.226 310.884 342.239Z" fill="#D9DEF0"/>
<path d="M223.417 415.128C223.417 417.141 221.785 418.772 219.773 418.772C217.76 418.772 216.128 417.141 216.128 415.128C216.128 413.115 217.76 411.483 219.773 411.483C221.785 411.483 223.417 413.115 223.417 415.128Z" fill="#D9DEF0"/>
<path d="M222.506 201.928C222.506 203.941 220.874 205.572 218.862 205.572C216.849 205.572 215.217 203.941 215.217 201.928C215.217 199.915 216.849 198.283 218.862 198.283C220.874 198.283 222.506 199.915 222.506 201.928Z" fill="#D9DEF0"/>
<path d="M130.484 210.128C130.484 212.141 128.852 213.772 126.839 213.772C124.827 213.772 123.195 212.141 123.195 210.128C123.195 208.115 124.827 206.483 126.839 206.483C128.852 206.483 130.484 208.115 130.484 210.128Z" fill="#D9DEF0"/>
<path d="M340.95 98.0612C340.95 100.074 339.319 101.706 337.306 101.706C335.293 101.706 333.661 100.074 333.661 98.0612C333.661 96.0485 335.293 94.4168 337.306 94.4168C339.319 94.4168 340.95 96.0485 340.95 98.0612Z" fill="#D9DEF0"/>
<path d="M401.084 182.795C401.084 184.807 399.452 186.439 397.439 186.439C395.426 186.439 393.795 184.807 393.795 182.795C393.795 180.782 395.426 179.15 397.439 179.15C399.452 179.15 401.084 180.782 401.084 182.795Z" fill="#D9DEF0"/>
<path d="M225.239 106.261C225.239 108.274 223.608 109.906 221.595 109.906C219.582 109.906 217.95 108.274 217.95 106.261C217.95 104.248 219.582 102.617 221.595 102.617C223.608 102.617 225.239 104.248 225.239 106.261Z" fill="#D9DEF0"/>
<path d="M260.773 86.2168C260.773 88.2296 259.141 89.8612 257.128 89.8612C255.115 89.8612 253.484 88.2296 253.484 86.2168C253.484 84.204 255.115 82.5723 257.128 82.5723C259.141 82.5723 260.773 84.204 260.773 86.2168Z" fill="#D9DEF0"/>
<path d="M425.684 75.2835C425.684 77.2962 424.052 78.9279 422.039 78.9279C420.027 78.9279 418.395 77.2962 418.395 75.2835C418.395 73.2707 420.027 71.639 422.039 71.639C424.052 71.639 425.684 73.2707 425.684 75.2835Z" fill="#D9DEF0"/>
<path d="M284.462 8.77235C284.462 10.7851 282.83 12.4168 280.817 12.4168C278.804 12.4168 277.173 10.7851 277.173 8.77235C277.173 6.75958 278.804 5.12791 280.817 5.12791C282.83 5.12791 284.462 6.75958 284.462 8.77235Z" fill="#D9DEF0"/>
<path d="M155.084 69.3612C155.084 73.6384 151.616 77.1057 147.339 77.1057C143.062 77.1057 139.595 73.6384 139.595 69.3612C139.595 65.0841 143.062 61.6168 147.339 61.6168C151.616 61.6168 155.084 65.0841 155.084 69.3612Z" fill="#D9DEF0"/>
<path fill-rule="evenodd" clip-rule="evenodd" d="M167.675 42.4712L193.93 74.9703L208.884 35.5886L167.675 42.4712ZM166.169 37.6535C162.717 38.2299 161.152 42.3532 163.351 45.0753L190.565 78.7615C192.764 81.4836 197.079 80.763 198.331 77.4644L213.831 36.6443C215.084 33.3457 212.335 29.943 208.883 30.5195L166.169 37.6535Z" fill="#D9DEF0"/>
<path fill-rule="evenodd" clip-rule="evenodd" d="M33.7414 224.896L59.9969 257.395L74.9503 218.014L33.7414 224.896ZM32.2355 220.079C28.7839 220.655 27.2183 224.778 29.4174 227.5L56.632 261.187C58.8311 263.909 63.1457 263.188 64.3982 259.889L79.8978 219.069C81.1503 215.771 78.4013 212.368 74.9497 212.945L32.2355 220.079Z" fill="#D9DEF0"/>
<path fill-rule="evenodd" clip-rule="evenodd" d="M92.9541 359.119L133.705 349.905L104.967 319.104L92.9541 359.119ZM87.9664 358.344C86.9601 361.696 89.969 364.921 93.3822 364.149L135.622 354.597C139.035 353.826 140.293 349.636 137.886 347.056L108.098 315.131C105.691 312.551 101.425 313.516 100.418 316.867L87.9664 358.344Z" fill="#D9DEF0"/>
<path fill-rule="evenodd" clip-rule="evenodd" d="M271.137 172.215L312.911 172.872L292.249 136.162L271.137 172.215ZM266.472 170.285C264.704 173.305 266.867 177.149 270.366 177.204L313.667 177.884C317.166 177.939 319.376 174.165 317.646 171.09L296.229 133.039C294.498 129.965 290.124 129.896 288.356 132.916L266.472 170.285Z" fill="#D9DEF0"/>
<path fill-rule="evenodd" clip-rule="evenodd" d="M169.042 378.589L182.818 418.032L210.161 385.988L169.042 378.589ZM169.246 373.546C165.802 372.926 162.939 376.281 164.093 379.585L178.372 420.469C179.526 423.773 183.831 424.547 186.122 421.863L214.464 388.648C216.754 385.964 215.312 381.834 211.868 381.215L169.246 373.546Z" fill="#D9DEF0"/>
<path fill-rule="evenodd" clip-rule="evenodd" d="M348.88 239.356L377.273 270.006L389.53 229.703L348.88 239.356ZM347.052 234.651C343.647 235.46 342.364 239.679 344.742 242.246L374.172 274.016C376.55 276.583 380.806 275.572 381.833 272.197L394.537 230.422C395.564 227.046 392.591 223.837 389.186 224.646L347.052 234.651Z" fill="#D9DEF0"/>
<path fill-rule="evenodd" clip-rule="evenodd" d="M313.916 279.969C314.855 278.957 316.437 278.898 317.449 279.838L323.171 285.151C324.183 286.091 324.242 287.673 323.302 288.685C322.363 289.696 320.781 289.755 319.769 288.815L314.046 283.502C313.035 282.562 312.976 280.98 313.916 279.969ZM304.225 283.624C305.403 282.904 306.942 283.275 307.662 284.453L312.158 291.811C312.878 292.989 312.507 294.528 311.329 295.248C310.151 295.968 308.612 295.596 307.892 294.418L303.396 287.061C302.676 285.883 303.047 284.344 304.225 283.624Z" fill="#D9DEF0"/>
<path d="M319.612 261.232C319.612 271.165 311.56 279.217 301.627 279.217C291.694 279.217 283.642 271.165 283.642 261.232C283.642 251.299 291.694 243.247 301.627 243.247C311.56 243.247 319.612 251.299 319.612 261.232Z" fill="#D9DEF0"/>
<path fill-rule="evenodd" clip-rule="evenodd" d="M222.744 279.969C221.804 278.957 220.223 278.898 219.211 279.838L213.488 285.152C212.477 286.091 212.418 287.673 213.357 288.685C214.297 289.696 215.879 289.755 216.891 288.816L222.613 283.502C223.625 282.562 223.683 280.98 222.744 279.969ZM232.434 283.624C231.256 282.904 229.717 283.276 228.997 284.454L224.501 291.811C223.781 292.989 224.153 294.528 225.331 295.248C226.509 295.968 228.048 295.597 228.768 294.418L233.264 287.061C233.984 285.883 233.612 284.344 232.434 283.624Z" fill="#D9DEF0"/>
<path d="M215.208 261.232C215.208 271.165 223.26 279.217 233.193 279.217C243.125 279.217 251.178 271.165 251.178 261.232C251.178 251.299 243.125 243.247 233.193 243.247C223.26 243.247 215.208 251.299 215.208 261.232Z" fill="#D9DEF0"/>
<path fill-rule="evenodd" clip-rule="evenodd" d="M261.423 270.008C259.861 271.113 259.201 272.407 259.201 273.565C259.201 274.723 259.861 276.017 261.423 277.122C262.978 278.223 265.258 278.982 267.894 278.982C270.529 278.982 272.809 278.223 274.364 277.122C275.926 276.017 276.586 274.723 276.586 273.565C276.586 272.407 275.926 271.113 274.364 270.008C272.809 268.908 270.529 268.148 267.894 268.148C265.258 268.148 262.978 268.908 261.423 270.008ZM258.535 265.926C261.031 264.161 264.347 263.148 267.894 263.148C271.44 263.148 274.757 264.161 277.252 265.926C279.741 267.687 281.586 270.351 281.586 273.565C281.586 276.779 279.741 279.444 277.252 281.204C274.757 282.969 271.44 283.982 267.894 283.982C264.347 283.982 261.031 282.969 258.535 281.204C256.046 279.444 254.201 276.779 254.201 273.565C254.201 270.351 256.046 267.687 258.535 265.926Z" fill="#D9DEF0"/>
<path fill-rule="evenodd" clip-rule="evenodd" d="M244.509 223.601L244.507 223.6C245.342 224.699 246.911 224.914 248.01 224.078C249.11 223.243 249.324 221.675 248.489 220.576C247.222 218.906 245.084 218.279 243.326 218.041C241.432 217.784 239.28 217.884 237.228 218.232C235.174 218.58 233.083 219.201 231.323 220.082C229.653 220.918 227.861 222.2 227.054 224.099C226.513 225.37 227.105 226.838 228.376 227.378C229.647 227.918 231.115 227.326 231.655 226.056C231.762 225.803 232.249 225.211 233.562 224.553C234.786 223.94 236.383 223.446 238.064 223.161C239.748 222.875 241.378 222.822 242.654 222.995C243.29 223.082 243.771 223.215 244.103 223.359C244.417 223.496 244.509 223.601 244.509 223.601Z" fill="#D9DEF0"/>
<path fill-rule="evenodd" clip-rule="evenodd" d="M292.119 223.601L292.121 223.6C291.286 224.699 289.717 224.914 288.618 224.078C287.518 223.243 287.304 221.675 288.139 220.576C289.406 218.906 291.544 218.279 293.302 218.041C295.196 217.784 297.348 217.884 299.4 218.232C301.454 218.58 303.545 219.201 305.305 220.082C306.975 220.918 308.767 222.2 309.574 224.099C310.115 225.37 309.523 226.838 308.252 227.378C306.981 227.918 305.513 227.326 304.973 226.056C304.866 225.803 304.379 225.211 303.066 224.553C301.842 223.94 300.245 223.446 298.564 223.161C296.88 222.875 295.25 222.822 293.974 222.995C293.338 223.082 292.857 223.215 292.525 223.359C292.21 223.496 292.119 223.601 292.119 223.601Z" fill="#D9DEF0"/>
<path fill-rule="evenodd" clip-rule="evenodd" d="M127.794 117.839C128.346 116.573 129.819 115.994 131.085 116.546L150.111 124.838C151.377 125.39 151.956 126.863 151.404 128.129C150.853 129.394 149.379 129.973 148.114 129.422L129.087 121.13C127.821 120.578 127.243 119.105 127.794 117.839Z" fill="#D9DEF0"/>
<path fill-rule="evenodd" clip-rule="evenodd" d="M199.996 117.839C199.444 116.573 197.971 115.994 196.705 116.546L177.679 124.838C176.413 125.39 175.834 126.863 176.386 128.129C176.937 129.394 178.411 129.973 179.676 129.422L198.703 121.13C199.969 120.578 200.547 119.105 199.996 117.839Z" fill="#D9DEF0"/>
<path fill-rule="evenodd" clip-rule="evenodd" d="M209.134 175.557C210.073 174.545 211.655 174.486 212.667 175.426L218.389 180.74C219.401 181.679 219.46 183.261 218.52 184.273C217.581 185.284 215.999 185.343 214.987 184.404L209.265 179.09C208.253 178.15 208.194 176.568 209.134 175.557ZM199.443 179.212C200.622 178.492 202.16 178.864 202.88 180.042L207.376 187.399C208.096 188.577 207.725 190.116 206.547 190.836C205.369 191.556 203.83 191.185 203.11 190.006L198.614 182.649C197.894 181.471 198.265 179.932 199.443 179.212Z" fill="#D9DEF0"/>
<path d="M214.83 156.82C214.83 166.753 206.778 174.805 196.845 174.805C186.912 174.805 178.86 166.753 178.86 156.82C178.86 146.888 186.912 138.835 196.845 138.835C206.778 138.835 214.83 146.888 214.83 156.82Z" fill="#D9DEF0"/>
<path fill-rule="evenodd" clip-rule="evenodd" d="M117.963 175.557C117.024 174.545 115.442 174.486 114.43 175.426L108.708 180.74C107.696 181.679 107.638 183.261 108.577 184.273C109.517 185.284 111.098 185.343 112.11 184.404L117.833 179.09C118.844 178.15 118.903 176.568 117.963 175.557ZM127.654 179.212C126.476 178.492 124.937 178.864 124.217 180.042L119.721 187.399C119.001 188.577 119.372 190.116 120.55 190.836C121.728 191.556 123.267 191.185 123.987 190.006L128.483 182.649C129.203 181.471 128.832 179.932 127.654 179.212Z" fill="#D9DEF0"/>
<path d="M110.429 156.82C110.429 166.753 118.481 174.805 128.414 174.805C138.346 174.805 146.398 166.753 146.398 156.82C146.398 146.888 138.346 138.835 128.414 138.835C118.481 138.835 110.429 146.888 110.429 156.82Z" fill="#D9DEF0"/>
<path fill-rule="evenodd" clip-rule="evenodd" d="M155.202 153.822C156.583 153.822 157.702 154.941 157.702 156.322C157.702 159.766 160.494 162.558 163.938 162.558C167.382 162.558 170.174 159.766 170.174 156.322C170.174 154.941 171.293 153.822 172.674 153.822C174.055 153.822 175.174 154.941 175.174 156.322C175.174 162.528 170.143 167.558 163.938 167.558C157.733 167.558 152.702 162.528 152.702 156.322C152.702 154.941 153.821 153.822 155.202 153.822Z" fill="#D9DEF0"/>
<path fill-rule="evenodd" clip-rule="evenodd" d="M418.687 385.113C419.627 384.101 421.208 384.042 422.22 384.982L427.943 390.296C428.954 391.235 429.013 392.817 428.074 393.829C427.134 394.84 425.552 394.899 424.54 393.959L418.818 388.646C417.806 387.706 417.748 386.124 418.687 385.113ZM408.997 388.768C410.175 388.048 411.714 388.419 412.434 389.598L416.93 396.955C417.65 398.133 417.278 399.672 416.1 400.392C414.922 401.112 413.383 400.74 412.663 399.562L408.167 392.205C407.447 391.027 407.819 389.488 408.997 388.768Z" fill="#D9DEF0"/>
<path d="M424.385 366.376C424.385 376.309 416.333 384.361 406.4 384.361C396.467 384.361 388.415 376.309 388.415 366.376C388.415 356.444 396.467 348.391 406.4 348.391C416.333 348.391 424.385 356.444 424.385 366.376Z" fill="#D9DEF0"/>
<path fill-rule="evenodd" clip-rule="evenodd" d="M327.52 385.113C326.58 384.101 324.998 384.042 323.987 384.982L318.264 390.296C317.252 391.235 317.194 392.817 318.133 393.829C319.073 394.84 320.655 394.899 321.666 393.959L327.389 388.646C328.401 387.706 328.459 386.124 327.52 385.113ZM337.21 388.768C336.032 388.048 334.493 388.419 333.773 389.598L329.277 396.955C328.557 398.133 328.928 399.672 330.107 400.392C331.285 401.112 332.823 400.741 333.543 399.562L338.04 392.205C338.76 391.027 338.388 389.488 337.21 388.768Z" fill="#D9DEF0"/>
<path d="M319.984 366.377C319.984 376.309 328.036 384.362 337.969 384.362C347.901 384.362 355.954 376.309 355.954 366.377C355.954 356.444 347.901 348.392 337.969 348.392C328.036 348.392 319.984 356.444 319.984 366.377Z" fill="#D9DEF0"/>
<path fill-rule="evenodd" clip-rule="evenodd" d="M364.755 363.377C366.136 363.377 367.255 364.497 367.255 365.877C367.255 369.321 370.047 372.113 373.491 372.113C376.935 372.113 379.727 369.321 379.727 365.877C379.727 364.497 380.846 363.377 382.227 363.377C383.607 363.377 384.727 364.497 384.727 365.877C384.727 372.083 379.696 377.113 373.491 377.113C367.285 377.113 362.255 372.083 362.255 365.877C362.255 364.497 363.374 363.377 364.755 363.377Z" fill="#D9DEF0"/>
<path fill-rule="evenodd" clip-rule="evenodd" d="M349.283 329.29L349.281 329.288C350.116 330.388 351.685 330.602 352.784 329.767C353.884 328.932 354.098 327.364 353.263 326.264C351.996 324.595 349.858 323.968 348.1 323.73C346.206 323.473 344.054 323.572 342.002 323.92C339.948 324.269 337.857 324.89 336.097 325.771C334.427 326.607 332.635 327.889 331.828 329.788C331.287 331.058 331.879 332.526 333.15 333.067C334.421 333.607 335.889 333.015 336.429 331.744C336.536 331.492 337.023 330.9 338.336 330.242C339.56 329.629 341.157 329.135 342.838 328.85C344.522 328.564 346.152 328.511 347.428 328.684C348.064 328.771 348.545 328.904 348.877 329.048C349.192 329.184 349.283 329.29 349.283 329.29Z" fill="#D9DEF0"/>
<path fill-rule="evenodd" clip-rule="evenodd" d="M396.893 329.29L396.895 329.288C396.06 330.388 394.491 330.602 393.392 329.767C392.292 328.932 392.078 327.364 392.913 326.264C394.18 324.595 396.318 323.968 398.076 323.73C399.97 323.473 402.122 323.572 404.174 323.92C406.228 324.269 408.319 324.89 410.079 325.771C411.749 326.607 413.541 327.889 414.348 329.788C414.889 331.058 414.297 332.526 413.026 333.067C411.755 333.607 410.287 333.015 409.747 331.744C409.64 331.492 409.153 330.9 407.84 330.242C406.616 329.629 405.019 329.135 403.338 328.85C401.654 328.564 400.024 328.511 398.748 328.684C398.112 328.771 397.631 328.904 397.299 329.048C396.984 329.184 396.893 329.29 396.893 329.29Z" fill="#D9DEF0"/>
</svg>
